<svg width="155" height="41" fill="none" xmlns="http://www.w3.org/2000/svg"><path d="M29.803 34.383H5.92V6.488h13.947V.568H2.961A2.947 2.947 0 0 0 0 3.527v33.816a2.947 2.947 0 0 0 2.96 2.96h29.803a2.946 2.946 0 0 0 2.96-2.96V16.488h-5.92v17.895Zm21.842-21.908h23.881V.567H42.697a2.947 2.947 0 0 0-2.96 2.96v20.856h23.816v3.948H39.737v11.907h32.829a2.946 2.946 0 0 0 2.96-2.96v-20.79H51.645v-4.013Zm27.829 0h11.908v27.83h11.907v-27.83h11.908V.567h-35.79v11.908h.067ZM143.092.567v27.83h-11.908V.566h-11.908v36.777a2.935 2.935 0 0 0 .864 2.097 2.941 2.941 0 0 0 2.097.863h29.802a2.943 2.943 0 0 0 2.739-1.825c.148-.36.224-.746.222-1.135V.567h-11.908Z" fill="#01496E"/><mask id="a" style="mask-type:luminance" maskUnits="userSpaceOnUse" x="0" y="0" width="155" height="41"><path d="M29.803 34.381H5.92V6.487h13.947V.565H2.961A2.947 2.947 0 0 0 0 3.526v33.816a2.948 2.948 0 0 0 2.96 2.96h29.803a2.95 2.95 0 0 0 2.96-2.96V16.487h-5.92V34.38Zm21.842-21.908h23.881V.565H42.697a2.947 2.947 0 0 0-2.96 2.961v20.855h23.816v3.948H39.737v11.907h32.829a2.95 2.95 0 0 0 2.96-2.96v-20.79H51.645v-4.013Zm27.829 0h11.908v27.83h11.907v-27.83h11.908V.565h-35.79v11.908h.067ZM143.092.565v27.83h-11.908V.564h-11.908v36.777a2.935 2.935 0 0 0 .864 2.097 2.943 2.943 0 0 0 2.097.863h29.802a2.947 2.947 0 0 0 2.961-2.96V.565h-11.908Z" fill="#fff"/></mask><g mask="url(#a)"><path d="M81.974-44.435h-92.435V48h92.435v-92.435Z" fill="url(#b)"/><path d="M174.408-44.435H81.974V48h92.434v-92.435Z" fill="url(#c)"/></g><path d="M33.75 8.265a2.098 2.098 0 0 0-.921.197l-1.974-2.828c.296-.298.461-.7.46-1.119a1.237 1.237 0 0 0-.13-.526l2.368-1.448a1.315 1.315 0 0 0 .986.46 1.25 1.25 0 1 0-1.25-1.249c0 .132.066.329.066.46l-2.434 1.316a1.566 1.566 0 1 0-1.184 2.566c.203-.012.403-.057.592-.132l1.908 2.895c-.357.329-.59.77-.658 1.25l-3.026-.066a2.83 2.83 0 0 0-2.764-2.368 2.783 2.783 0 0 0-2.763 2.763.85.85 0 0 0 .066.395l-5.987 1.974a3.637 3.637 0 0 0-3.158-1.974 3.553 3.553 0 0 0 0 7.105c.5-.007.994-.12 1.448-.329l3.816 5.79a3.947 3.947 0 1 0 2.697-1.053 4.605 4.605 0 0 0-1.645.329l-3.881-5.724a3.69 3.69 0 0 0 1.118-2.566c.01-.2-.012-.4-.066-.592l5.987-2.04a2.77 2.77 0 0 0 2.434 1.448 2.816 2.816 0 0 0 2.764-2.368l3.026-.066a2.25 2.25 0 0 0 2.17 1.842 2.217 2.217 0 0 0 2.238-2.237 2.303 2.303 0 0 0-2.303-2.105Z" fill="#D3B574"/><defs><radialGradient id="b" cx="0" cy="0" r="1" gradientUnits="userSpaceOnUse" gradientTransform="translate(35.757 1.783) scale(46.2171)"><stop stop-color="#008FB9"/><stop offset="1" stop-color="#01496E" stop-opacity="0"/></radialGradient><radialGradient id="c" cx="0" cy="0" r="1" gradientUnits="userSpaceOnUse" gradientTransform="translate(128.191 1.783) scale(46.2171)"><stop stop-color="#01496E"/><stop offset="1" stop-color="#01496E"/></radialGradient></defs></svg>