<svg width="16" height="15" fill="none" xmlns="http://www.w3.org/2000/svg"><path fill-rule="evenodd" clip-rule="evenodd" d="M1.284.46c.23-.232.544-.361.87-.361h11.697a1.231 1.231 0 0 1 1.231 1.23v11.697a1.231 1.231 0 0 1-1.23 1.232H8.587a.616.616 0 1 1 0-1.232h5.263V1.33H2.155v7.025a.616.616 0 0 1-1.232 0V1.33c0-.327.13-.64.361-.87Z" fill="#3C9E83"/><path fill-rule="evenodd" clip-rule="evenodd" d="M8.438 8.59c.24.24.24.63 0 .87l-4.925 4.925c-.24.24-.63.24-.87 0L.18 11.923a.616.616 0 1 1 .87-.87l2.028 2.026 4.49-4.49c.24-.24.63-.24.87 0Z" fill="#3C9E83"/></svg>