<svg width="1513" height="2105" fill="none" xmlns="http://www.w3.org/2000/svg"><path d="M1512.27 84.373c-342.5 8.714-533.654 119.129-743.63 119.129-207.545 0-597.445-138.04-768.64-67.812v1968.84h1512c0-446.81.27-1796.143.27-2020.157Z" fill="url(#a)"/><path d="M360.954 306.333c154.574-98.374 364.377-225.9 582.978-225.9 207.358 0 328.568-1.9 568.358-79.49v558.754C1218.2 560.469 181.616 556.38 0 472.78v-98.694c0-139.123 206.379 30.622 360.954-67.753Z" fill="url(#b)"/><defs><linearGradient id="a" x1="58.722" y1="1008.29" x2="1546.67" y2="450.854" gradientUnits="userSpaceOnUse"><stop stop-color="#D4ECFF"/><stop offset="1" stop-color="#EEF7FF"/></linearGradient><linearGradient id="b" x1="5.396" y1="721.15" x2="1519.03" y2="712.562" gradientUnits="userSpaceOnUse"><stop stop-color="#D4ECFF" stop-opacity=".5"/><stop offset="1" stop-color="#EEF7FF" stop-opacity=".5"/></linearGradient></defs></svg>