<svg width="1000" height="668" fill="none" xmlns="http://www.w3.org/2000/svg"><g clip-path="url(#a)" fill="#D4ECFF"><path d="M832.859 203.726h.003-.01.007Z"/><path fill-rule="evenodd" clip-rule="evenodd" d="M430.876.799h2.998c-.203 2.2-.361 4.408-.519 6.616-.342 4.766-.684 9.533-1.47 14.22-6.875 40.981-28.31 72.244-63.555 94.07-10.682 6.608-22.184 11.357-34.386 14.407-3.857.96-3.967 1.29-3.337 5.119.136.834.286 1.667.436 2.501.41 2.283.821 4.567.953 6.867.17 2.929 1.359 3.799 4.097 3.199 2.577-.57 5.176-1.075 7.774-1.581 5.239-1.018 10.48-2.037 15.549-3.588 34.456-10.568 61.407-31.423 80.943-61.507C456.138 56.827 463.953 29.902 463.843.8h2.998c-.094 1.663-.176 3.327-.259 4.99-.172 3.479-.344 6.958-.621 10.427-1.459 18.326-6.685 35.652-14.929 51.959-8.854 17.516-20.556 32.933-35.565 45.83-21.325 18.336-45.578 30.314-73.358 34.933-9.843 1.639-10.193 2.019-8.634 11.917.014.079.032.16.049.241v.001l.006.028.045.22.005.03c.754 4.281.814 4.618 5.041 4.279 1.3-.102 2.602-.199 3.906-.296l.008-.001c6.978-.52 13.984-1.042 20.819-2.372 39.392-7.669 71.949-27.134 97.111-58.388C484.788 74.394 497.359 39.841 496.809.799h5.996c-.15 9.338.44 18.576 2.019 27.824 5.196 30.484 17.887 57.428 38.183 80.613 21.685 24.785 48.316 42.191 80.283 50.63 10.393 2.749 21.145 4.539 31.848 5.558 11.482 1.096 11.482.485 11.482-10.879v-.118c0-3.13-.91-4.209-4.137-4.649-31.978-4.419-59.718-17.947-83.122-40.072-14.899-14.097-26.491-30.694-34.515-49.66-8.005-18.934-12.112-38.67-12.062-59.246h2.998c.15 2.23.255 4.468.36 6.706.231 4.913.462 9.827 1.169 14.67 3.547 24.484 12.641 46.73 27.431 66.666 21.025 28.343 48.595 46.93 82.641 55.908 3.459.914 7.003 1.486 10.55 2.058 2.037.328 4.075.657 6.099 1.051 2.348.45 3.327-.34 3.577-2.729.256-2.435.698-4.846 1.14-7.256.128-.697.256-1.395.379-2.092.739-4.19.55-4.529-3.388-5.669-1.052-.305-2.113-.59-3.174-.876-2.313-.622-4.628-1.244-6.869-2.074-37.723-14.007-64.704-39.391-80.023-76.684-6.496-15.816-10.263-32.333-8.904-49.669h1.999c.639 20.036 4.487 39.362 13.37 57.428 12.162 24.755 30.229 44.081 54.252 57.678 9.453 5.349 19.486 9.368 29.969 12.257 2.878.79 4.407.08 5.126-2.839.764-3.083 1.685-6.132 2.604-9.179l.001-.002.001-.003.296-.982c1.336-4.412 1.351-4.461-2.862-6.191-19.236-7.908-35.185-20.216-47.756-36.692-16.059-21.046-24.603-44.77-24.033-71.475h2.998c-.57 14.187 2.148 27.854 7.135 41.031 7.345 19.406 19.256 35.633 35.345 48.71 8.434 6.859 17.677 12.407 27.76 16.577 2.718 1.119 4.107.939 5.217-2.07 1.548-4.209 3.437-8.308 5.526-12.277 1.379-2.63 1.069-3.9-1.619-5.46-10.763-6.228-19.966-14.296-27.671-24.114C640.038 44.871 632.844 24.075 632.714.8h2.997c-.049 17.876 4.497 34.533 13.511 49.93 8.384 14.337 19.836 25.754 33.906 34.522 3.078 1.92 3.498 1.66 5.426-1.42 2.352-3.746 4.75-7.468 7.147-11.188l.001-.002.001-.002.002-.003.904-1.402.017-.027c1.161-1.815 1.742-2.722 1.618-3.52-.124-.797-.952-1.486-2.609-2.862l-.036-.03c-8.014-6.688-14.34-14.746-19.396-23.834C669.278 28.474 666.39 14.927 665.68.81h2.998c.117 1.156.223 2.313.33 3.47v.006c.214 2.314.427 4.627.72 6.932 2.618 20.685 11.961 37.802 27.54 51.559 2.888 2.56 3.438 2.47 6.076-.41 1.143-1.25 2.283-2.503 3.423-3.757l.003-.004.001-.001c2.545-2.8 5.091-5.602 7.685-8.355l.108-.115c1.485-1.58 2.217-2.36 2.243-3.162.025-.78-.618-1.583-1.887-3.165l-.214-.267c-9.983-12.477-15.689-26.494-15.05-42.731h2.998c-.649 15.307 4.797 28.584 13.671 40.671 2.648 3.61 3.007 3.48 6.535.59l.474-.388c4.459-3.65 8.926-7.308 13.626-10.63 2.658-1.879 3.248-3.359 1.649-6.398-3.927-7.409-6.176-15.357-5.986-23.855h2.998c-.09 8.158 1.869 15.817 5.616 23.055 1.029 2 2.109 2.67 4.297 1.48a715.74 715.74 0 0 1 9.294-4.94c3.67-1.927 7.34-3.854 10.972-5.858.869-.48 1.788-2.02 1.679-2.95-.304-2.683-.828-5.345-1.351-8.005l-.001-.002c-.182-.927-.364-1.853-.537-2.78h2.998c.16.92.315 1.841.47 2.764l.004.026.001.002v.003l.001.002V3.6l.001.002v.002c.336 2.001.673 4.005 1.062 5.994.399 2.04 1.529 2.58 3.607 1.93 7.585-2.37 15.179-4.66 22.834-6.799 2.218-.62 2.888-1.94 3.008-3.929h2.998c.202.227.411.521.619.815.453.638.906 1.276 1.289 1.235 3.927-.42 7.83-.992 11.737-1.564h.004c1.112-.164 2.225-.327 3.339-.486h27.98c1.043.175 2.086.354 3.128.533h.002c3.661.629 7.324 1.257 11.01 1.717.349.04.798-.66 1.245-1.36.204-.321.409-.642.604-.89h2.998c.02 2.01.699 3.32 2.898 3.94 4.554 1.266 9.081 2.62 13.611 3.973 2.725.814 5.45 1.629 8.183 2.425 3.168.93 4.157.42 4.787-2.96.309-1.655.358-3.359.408-5.06.022-.774.045-1.55.092-2.318h2.997c-.081.872-.143 1.749-.204 2.625-.136 1.926-.272 3.854-.615 5.743l-.053.293c-.353 1.938-.533 2.931-.182 3.672.369.778 1.326 1.277 3.29 2.3l1.033.539c5.27 2.744 10.542 5.489 15.708 8.403 4.167 2.35 4.377 2.38 6.655-1.99 3.528-6.768 4.617-14.137 5.337-21.595h2.997c-.034.09-.076.18-.118.271-.102.22-.204.442-.211.669-.39 8.588-2.329 16.746-6.676 24.235-1.259 2.17.07 3.299 1.629 4.509 4.737 3.639 9.434 7.338 14.12 11.047 4.197 3.33 4.427 3.3 7.685-.92 9.063-11.727 13.4-25.054 13.55-39.821h2.998c-.16 16.237-5.396 30.674-15.729 43.16-1.948 2.36-1.848 3.65.2 5.78 4.147 4.299 8.054 8.848 11.882 13.437 1.469 1.76 2.688 2.3 4.487.66.405-.373.835-.717 1.264-1.06.481-.384.96-.767 1.404-1.19C987.293 45.02 996.757 25.034 996.427.79c.273.008.553-.004.83-.017 1.396-.062 2.683-.119 2.258 2.526-.305 1.912-.23 3.886-.156 5.863.033.876.066 1.753.066 2.626-.094.343-.184.69-.273 1.035l-.001.003-.001.003-.001.002v.003l-.001.001v.001a41.123 41.123 0 0 1-.632 2.261c-.678 2.144-1.317 4.305-1.957 6.465v.002c-1.475 4.983-2.951 9.968-4.889 14.759-4.706 11.617-12.841 20.835-22.234 28.923-2.178 1.88-2.798 3-.759 5.54 2.368 2.94 4.362 6.196 6.348 9.437.445.725.889 1.45 1.336 2.17l.077.124c2.923 4.698 3.033 4.876 7.858 1.545 3.615-2.486 7.104-5.162 10.592-7.838 1.506-1.155 3.012-2.31 4.527-3.45v3c-1.557 1.133-3.106 2.277-4.655 3.42-3.78 2.79-7.559 5.58-11.444 8.218-1.988 1.35-2.838 2.38-1.649 4.749 2.219 4.459 4.267 8.998 6.206 13.587.899 2.119 1.889 2.789 4.117 1.74 1.65-.77 3.392-1.353 5.132-1.934.767-.257 1.534-.513 2.293-.786v2c-.697.292-1.39.599-2.082.907-1.561.695-3.123 1.39-4.743 1.902-2.309.74-2.638 2-1.909 4.089.201.583.406 1.166.611 1.75v.002c1.046 2.98 2.097 5.978 2.757 9.046.679 3.159 2.218 4.559 5.356 4.289v2c-2.368-.06-3.827.42-3.078 3.439.843 3.382 1.524 6.803 2.204 10.225l.003.015.003.015c.285 1.434.57 2.869.868 4.302v19.996c-1.33.11-2.659.229-3.988.349h-.002c-2.644.237-5.285.474-7.932.64-25.931 1.59-49.914 9.558-72.029 22.896-25.142 15.156-44.938 35.642-59.228 61.447-17.787 32.133-24.133 66.476-19.187 102.648 4.877 35.673 20.086 66.616 45.378 92.471 28.121 28.744 62.307 44.88 102.128 49.209 3.364.364 6.769.327 10.175.291 1.563-.016 3.126-.033 4.685-.011v20.996c-.291 1.395-.574 2.792-.857 4.188-.687 3.395-1.374 6.787-2.181 10.159-.659 2.789.71 3.529 3.038 3.649v2c-.522.149-1.118.044-1.714-.06-1.276-.225-2.554-.45-3.113 1.819-1.069 4.359-2.448 8.638-3.837 12.908-.679 2.099-.47 3.409 1.859 4.219 1.626.57 3.185 1.338 4.743 2.107.682.336 1.364.672 2.052.992v2c-.804-.314-1.609-.622-2.414-.931a207.218 207.218 0 0 1-5.431-2.139c-1.698-.7-2.818-.36-3.577 1.38-.738 1.69-1.492 3.374-2.245 5.059l-.003.007c-1.478 3.306-2.958 6.614-4.327 9.971-.3.74.16 2.369.809 2.829 4.561 3.257 9.199 6.403 13.837 9.549l.004.003 1.666 1.13.829.564.842.572v3.999l-.059-.045a10809.95 10809.95 0 0 0-17.009-12.842c-2.149-1.62-3.607-1.44-5.066 1.189-1.92 3.471-4.126 6.779-6.331 10.086-.469.703-.938 1.407-1.404 2.112l-.067.102c-1.434 2.171-2.151 3.257-2.012 4.218.14.961 1.139 1.798 3.137 3.472l.091.076c9.723 8.148 17.228 18.066 21.895 29.804 2.018 5.081 3.438 10.397 4.859 15.716l.001.002c.634 2.372 1.268 4.745 1.955 7.097 0 .868-.033 1.741-.066 2.615v.002c-.074 1.974-.149 3.952.156 5.871.426 2.661-.869 2.598-2.269 2.53-.273-.013-.55-.027-.819-.02-.12-1.67-.186-3.35-.252-5.03-.143-3.64-.286-7.28-.977-10.817-3.588-18.366-12.441-33.843-26.501-46.27-3.388-2.99-3.568-2.89-6.576.63-3.447 4.039-7.025 7.978-10.612 11.897l-.129.14c-2.92 3.17-2.948 3.2-.131 6.659 10.113 12.467 15.089 26.764 15.209 42.781h-2.998c-.09-15.487-4.956-29.294-14.469-41.482l-.025-.031-.001-.001c-1.199-1.534-1.796-2.296-2.468-2.371-.665-.074-1.405.525-2.875 1.716l-.797.645-.006.005c-4.714 3.822-9.427 7.643-14.344 11.185-2.508 1.81-3.098 3.279-1.479 6.099 3.607 6.259 5.726 13.027 5.766 20.356 0 .886.219 1.768.437 2.649.102.41.203.82.283 1.23h-2.998a66.398 66.398 0 0 1-.037-.444l-.002-.026-.001-.003c-.055-.669-.109-1.335-.19-2.007-.81-7.308-2.259-14.417-5.966-20.905-.949-1.65-1.819-2.63-3.887-1.51a1193.765 1193.765 0 0 1-20.256 10.658c-1.759.9-2.278 1.899-1.889 3.939.468 2.401.704 4.847.941 7.296.097 1.008.195 2.016.308 3.022h-2.997c-.076-.88-.14-1.761-.205-2.643v-.008c-.141-1.922-.282-3.847-.535-5.758-.33-2.439-1.579-3.279-4.187-2.429-7.255 2.359-14.55 4.609-21.915 6.619-2.478.669-3.217 1.979-3.137 4.229h-2.998a12.289 12.289 0 0 1-.703-.979c-.51-.76-1.02-1.519-1.436-1.471-4.433.511-8.847 1.202-13.257 1.892-1.197.187-2.394.374-3.591.558H821.51c-1.174-.167-2.349-.337-3.524-.506l-.031-.004c-4.582-.662-9.168-1.324-13.772-1.84-.313-.034-.708.685-1.105 1.406l-.001.001c-.187.34-.374.68-.553.943h-2.998c.16-2.62-1.179-3.73-3.657-4.339-5.477-1.35-10.943-2.77-16.279-4.579-9.583-3.25-9.863-3.17-10.842 6.938a241.46 241.46 0 0 1-.2 1.98h-2.998c.182-.985.375-1.967.567-2.95.534-2.731 1.068-5.461 1.392-8.218.099-.87-.9-2.319-1.779-2.799-2.811-1.538-5.654-3.014-8.497-4.489l-.013-.006c-3.753-1.949-7.505-3.896-11.176-5.983-2.598-1.48-3.818-.87-5.007 1.51-3.607 7.228-5.586 14.826-5.466 22.925h-2.998c.048-.736.081-1.472.115-2.208v-.006c.072-1.583.144-3.163.355-4.725.839-6.328 2.668-12.367 5.896-17.896 1.239-2.13 1.009-3.439-1.07-4.969-3.745-2.764-7.382-5.667-11.022-8.572l-.002-.002c-1.429-1.14-2.858-2.281-4.295-3.414-3.098-2.439-3.357-2.429-6.045.62-.77.87-1.459 1.82-2.119 2.77-8.034 11.537-12.371 24.215-11.802 38.402h-2.998c.192-1.781.339-3.572.485-5.363.328-3.999.656-7.999 1.484-11.894 2.099-9.938 6.965-18.656 13.521-26.394 1.668-1.97 2.028-3.299-.04-5.369-4.227-4.229-8.255-8.678-12.112-13.257-1.789-2.13-2.918-2.34-5.156-.52-7.355 5.969-13.011 13.297-17.798 21.345-7.594 12.758-10.672 26.785-11.352 41.442h-2.998c.084-.692.185-1.382.286-2.072.213-1.455.426-2.909.474-4.367.32-10.158 3.078-19.696 7.265-28.864 5.276-11.557 12.761-21.445 22.624-29.454 2.138-1.729 2.388-3.099.719-5.379-2.222-3.053-4.249-6.254-6.272-9.449l-.004-.008c-.559-.881-1.116-1.763-1.678-2.64-2.688-4.199-3.088-4.509-7.305-1.56l-.412.288c-5.043 3.515-10.151 7.076-14.577 11.3-20.546 19.616-30.869 43.781-31.098 72.225h-2.998c.103-1.512.177-3.027.251-4.542l.001-.019c.161-3.299.322-6.596.787-9.846 2.248-15.727 7.665-30.274 16.948-43.271 8.324-11.668 18.417-21.416 30.788-28.754 3.548-2.1 3.578-2.36 1.839-6.379-1.202-2.784-2.42-5.558-3.639-8.333l-1.358-3.094c-1.598-3.65-1.868-3.86-5.566-2.25-10.282 4.449-19.876 10.048-28.439 17.336-27.471 23.366-41.691 52.919-41.571 89.172h-2.998c-.68-15.237 2.378-29.814 8.074-43.861 8.934-22.035 22.954-40.102 42.91-53.149 5.548-3.62 11.52-6.612 17.478-9.597 1.478-.741 2.956-1.481 4.426-2.23 2.129-1.08 3.178-2.01 2.319-4.539-1.14-3.355-2.118-6.777-3.094-10.194l-.001-.001-.001-.005-.373-1.304-.268-.934c-.56-1.949-1.599-2.799-3.658-2.089-.557.189-1.135.323-1.714.456l-.001.001c-.397.091-.793.183-1.183.292-23.433 6.749-43.389 19.126-60.137 36.853-13.991 14.817-23.594 32.083-29.739 51.419-4.028 12.657-5.297 25.704-6.026 38.862h-2.998c.194-2.062.357-4.127.52-6.193.348-4.404.695-8.807 1.349-13.163 6.075-40.372 26.501-71.575 60.577-93.871 11.512-7.528 24.023-12.887 37.353-16.346 4.307-1.12 4.307-1.31 3.578-5.459a654.475 654.475 0 0 1-1.499-8.858c-.65-4.009-.809-4.209-4.747-3.529-50.694 8.658-88.227 35.632-111.821 81.373-10.622 20.595-15.319 42.841-15.289 66.046h-2.998c-.29-12.738 1.519-25.245 4.667-37.512 8.214-31.964 25.122-58.498 50.704-79.364 20.116-16.406 42.95-27.064 68.622-31.433 10.372-1.76 11.182-2.939 9.573-13.507-.42-2.79-1.599-4.199-4.577-3.869-2.356.261-4.724.465-7.092.669l-.004.001c-4.428.382-8.858.764-13.22 1.519-39.252 6.829-72.518 24.675-98.58 55.039-26.721 31.123-40.531 67.195-40.072 108.457h-5.995c.549-14.597-1.439-28.894-5.187-42.971-6.086-22.865-16.688-43.401-31.608-61.767-19.166-23.585-43.109-40.382-71.559-50.83-15.099-5.548-30.698-8.528-46.757-9.678a39.691 39.691 0 0 1-.39-.028l-.195-.014-1.131-.089c-2.737-.218-4.225-.336-5.114.337-1.059.804-1.264 2.735-1.714 6.969v.004c-.048.453-.044.912-.04 1.371.001.21.003.419 0 .629-.099 6.048-.09 6.049 5.942 7.038l.244.04c31.987 5.229 59.728 18.916 82.911 41.711 14.95 14.697 26.332 31.774 33.996 51.229 7.085 17.967 10.942 36.633 10.633 56.049h-2.998c.07-10.518-1.019-20.906-3.168-31.194-6.106-29.194-20.056-54.198-41.081-75.084-13.181-13.097-28.52-23.345-45.728-30.673-12.171-5.189-24.862-8.389-37.843-10.618-2.398-.41-3.757.2-3.987 2.939-.226 2.623-.695 5.224-1.164 7.823l-.003.017c-.091.506-.183 1.012-.272 1.518l-.02.109c-.78 4.371-.792 4.44 3.717 5.66 11.122 3.019 21.765 7.148 31.768 12.967 28.27 16.447 48.116 39.932 59.498 70.605 5.506 14.827 7.564 30.254 8.304 45.931h-2.998c-.5-14.887-2.518-29.534-7.505-43.611-10.692-30.204-29.939-53.489-57.259-70.125-10.453-6.359-21.725-10.778-33.467-14.137-2.608-.74-3.647 0-4.277 2.379-.521 1.951-1.099 3.885-1.676 5.819l-.001.004c-.517 1.732-1.034 3.463-1.51 5.205-1.1 4.012-1.044 4.04 2.533 5.84l.295.148c1.645.831 3.305 1.641 4.967 2.45l.003.003c4.775 2.327 9.557 4.658 13.996 7.505 17.148 11.008 30.539 25.695 39.962 43.751 8.914 17.097 13.79 35.293 12.971 54.769h-2.998c.48-9.728-.709-19.266-3.128-28.674-5.706-22.216-16.938-41.162-33.836-56.648-9.893-9.068-21.085-16.207-33.476-21.456-2.638-1.12-3.948-.53-4.967 2.04-1.031 2.591-2.165 5.141-3.3 7.69a374.552 374.552 0 0 0-1.856 4.217c-1.769 4.089-1.799 4.269 1.819 6.359 8.903 5.139 16.548 11.787 23.333 19.406 16.978 19.096 25.332 41.521 25.432 67.056h-2.998c-.199-2.112-.346-4.234-.493-6.355-.324-4.678-.648-9.354-1.535-13.921-3.408-17.506-11.342-32.903-23.264-46.19-6.595-7.349-14.16-13.507-22.654-18.586-2.258-1.35-3.328-1.05-4.647 1.249-2.638 4.609-5.466 9.138-8.584 13.428-1.778 2.459-1.618 3.799.72 5.718 7.395 6.039 13.49 13.248 18.437 21.436 8.024 13.297 11.322 27.894 12.041 43.221h-2.997c-.33-8.488-1.419-16.867-4.078-24.975-4.926-15.007-13.06-27.874-25.332-38.002-1.948-1.61-3.078-1.78-4.786.39-3.068 3.909-6.406 7.618-9.823 11.237l-.182.193c-2.214 2.342-3.32 3.512-3.38 4.733-.059 1.217.92 2.484 2.874 5.015l.168.217c9.353 12.118 14.17 25.775 13.56 41.192h-2.997c.679-14.957-4.058-28.194-12.941-40.012-3.555-4.726-4.213-4.149-7.027-1.679-.216.189-.445.389-.688.599-4.397 3.8-8.984 7.449-13.8 10.678-2.948 1.98-2.988 3.649-1.439 6.489 4.037 7.428 6.345 15.357 5.926 23.925h-2.998c.16-7.989-1.679-15.527-5.346-22.606-1.769-3.409-1.969-3.399-5.247-1.669-1.393.733-2.784 1.47-4.176 2.207-5.078 2.687-10.157 5.376-15.31 7.911-1.929.949-2.248 1.909-1.789 3.869.567 2.404.973 4.848 1.379 7.289l.001.004c.166 1 .332 1.999.509 2.995h-2.998l-.084-.518c-.073-.455-.144-.91-.216-1.366l-.108-.694-.001-.003-.001-.008c-.324-2.082-.649-4.166-1.059-6.229-.43-2.16-1.479-2.87-3.917-2.06-7.395 2.46-14.84 4.789-22.374 6.739-2.589.669-3.108 2.009-3.218 4.129h-2.998c-.181-.266-.371-.61-.559-.954-.395-.718-.786-1.43-1.09-1.396-4.592.515-9.165 1.174-13.739 1.834-1.199.173-2.399.345-3.599.516h-22.983c-1.166-.179-2.333-.361-3.499-.544-4.441-.694-8.886-1.389-13.35-1.896-.418-.048-.936.72-1.449 1.481-.234.347-.467.693-.689.959h-2.998c-.01-1.92-.27-3.43-2.638-4.099-7.675-2.15-15.289-4.5-22.894-6.879-2.138-.67-3.258.05-3.537 2.09-.289 2.129-.484 4.269-.679 6.412-.075.825-.15 1.65-.231 2.476h-2.998c.109-.994.191-1.994.272-2.995.188-2.3.375-4.6.898-6.823.579-2.48-.12-3.619-2.229-4.679-6.365-3.21-12.7-6.479-18.936-9.948-2.469-1.37-3.668-1.01-5.027 1.49-3.907 7.188-5.216 14.986-5.966 22.965h-1.998c-1.07-8.778 1.379-16.767 5.576-24.315 1.359-2.44 1.309-3.979-1.19-5.789-3.863-2.794-7.573-5.806-11.284-8.818l-.002-.001-.003-.003a702.345 702.345 0 0 0-3.93-3.175c-2.798-2.25-3.078-2.26-5.516.719-9.843 12.028-14.35 25.965-14.63 41.382h-2.997c.21-16.177 5.136-30.704 15.619-43.111 2.128-2.52 1.978-3.939-.23-6.159-3.628-3.639-7.015-7.528-10.313-11.477-3.727-4.47-3.847-4.6-8.004-.7-17.738 16.636-27.321 36.872-27.051 61.447-.273-.009-.553.004-.83.016-1.396.062-2.683.12-2.258-2.526.305-1.912.23-3.886.156-5.862-.033-.877-.066-1.754-.066-2.626.09-.3.189-.599.288-.899.213-.637.426-1.277.541-1.93 1.789-10.238 5.017-19.956 10.433-28.864 4.946-8.139 10.752-15.547 18.207-21.586 3.353-2.719 3.289-2.818 1.01-6.311l-.05-.077-.785-1.199v-.001c-2.468-3.768-4.934-7.534-7.31-11.358-2.118-3.399-2.328-3.699-5.666-1.339-3.951 2.805-7.791 5.765-11.631 8.724a850.486 850.486 0 0 1-5.037 3.863v-3.999c1.392-.949 2.787-1.893 4.183-2.838l.002-.002.002-.001c4.355-2.947 8.711-5.896 12.97-8.977.69-.49 1.02-2.369.66-3.269-1.106-2.77-2.323-5.493-3.54-8.216v-.002a303.409 303.409 0 0 1-2.605-5.939c-.92-2.17-2.219-2.6-4.297-1.69-1.718.75-3.466 1.424-5.211 2.098l-.003.001c-.721.279-1.443.557-2.161.841v-2c.727-.319 1.45-.645 2.174-.972 1.525-.689 3.05-1.377 4.601-1.987 2.079-.81 2.718-1.98 1.969-4.189l-.433-1.265c-1.137-3.315-2.284-6.66-2.905-10.083-.64-3.499-2.408-4.179-5.406-3.499v-2l.15-.015c1.828-.183 3.6-.36 2.998-3.094-.827-3.758-1.614-7.534-2.4-11.305L.12 519.69v-19.996c2.044-.207 4.09-.407 6.136-.607 4.567-.445 9.135-.891 13.69-1.423 26.99-3.159 51.603-12.747 73.738-28.364 25.732-18.166 45.028-41.711 57.339-70.855 8.255-19.546 12.761-39.891 12.881-61.117.037-6.592-.42-13.193-.876-19.771v-.003l-.113-1.631c-.909-13.217-4.097-25.985-8.724-38.312-9.953-26.485-25.242-49.33-46.737-67.956-15.929-13.797-33.796-24.145-53.532-31.313-17.368-6.309-35.445-8.749-53.802-9.568v-19.996c.3-1.442.586-2.886.874-4.33.68-3.423 1.36-6.845 2.204-10.227.75-3.009-.7-3.509-3.078-3.439v-2c3.078.28 5.006-.76 5.306-4.169.079-.879.39-1.732.701-2.591.203-.558.407-1.118.548-1.688.218-.889.554-1.846.89-2.806.807-2.301 1.622-4.622.839-6.082-.879-1.64-3.16-2.535-5.44-3.429-.986-.387-1.972-.774-2.844-1.22v-2c.72.258 1.445.508 2.169.758 1.775.614 3.55 1.227 5.276 1.952 1.778.749 2.997.929 3.927-1.25a326.404 326.404 0 0 1 6.605-14.517c1.079-2.234-.1-3.052-1.611-4.1l-.01-.008a87.693 87.693 0 0 1-.247-.171c-3.974-2.777-7.878-5.64-11.787-8.506C3.003 77.9 1.564 76.845.12 75.793v-3a679.868 679.868 0 0 1 4.627 3.496c3.624 2.754 7.246 5.507 10.992 8.082 4.357 2.99 4.527 2.74 7.265-1.61.554-.882 1.1-1.772 1.648-2.662 1.898-3.09 3.8-6.184 6.026-9.025 2.039-2.6 1.72-3.889-.71-5.959C15.38 52.599 5.637 37.072 1.709 18.066a724.93 724.93 0 0 0-.985-4.701c-.181-.859-.363-1.717-.543-2.577 0-.769.032-1.544.065-2.32C.317 6.729.39 4.987.1 3.308-.37.652.952.714 2.363.78c.272.013.548.025.815.019-.48 14.357 3.337 27.624 10.163 40.111 4.676 8.559 10.922 15.847 18.167 22.326 2.128 1.9 3.527 2.06 5.536-.55 2.603-3.377 5.533-6.507 8.46-9.634a416.835 416.835 0 0 0 2.802-3.013l.11-.12c1.352-1.47 2.037-2.216 2.07-2.99.035-.796-.622-1.623-1.956-3.3l-.014-.019C38.553 31.083 33.346 16.836 33.156.799h2.998c.17 14.597 4.617 27.734 13.301 39.452 3.598 4.849 3.817 4.879 8.294 1.16A437.1 437.1 0 0 1 70.59 31.152l.189-.145c1.779-1.366 2.662-2.045 2.853-2.882.189-.825-.297-1.805-1.263-3.751l-.04-.081C68.662 16.896 66.133 9.237 67.123.799h1.998c.65 8.008 2.329 15.737 6.076 22.935 1.17 2.25 2.358 2.61 4.697 1.3 6.365-3.56 12.86-6.899 19.396-10.138 2.048-1.01 2.468-2.06 1.989-4.27-.489-2.24-.695-4.546-.901-6.85A122.06 122.06 0 0 0 100.089.8h2.998c.064.75.106 1.506.149 2.261.098 1.74.195 3.48.551 5.167.749 3.55 1.429 3.84 4.816 2.84 2.278-.672 4.551-1.36 6.824-2.047 4.73-1.431 9.46-2.862 14.231-4.152 2.339-.63 3.478-1.7 3.408-4.069h2.998c.196.246.4.566.605.887.444.695.891 1.394 1.254 1.353 4.366-.486 8.713-1.135 13.057-1.784h.001c1.023-.153 2.047-.305 3.07-.456h25.982c1.184.167 2.367.339 3.55.51 3.841.557 7.682 1.114 11.539 1.52.374.04.822-.585 1.271-1.212.212-.295.423-.59.628-.818h2.998c.06 2.38 1.459 3.38 3.617 4a914.794 914.794 0 0 1 22.275 6.728c2.078.65 3.197.06 3.577-1.95.386-2.007.72-4.03 1.054-6.052l.001-.004v-.004c.15-.906.3-1.813.454-2.718h2.998c-.162.953-.3 1.913-.438 2.874-.312 2.174-.625 4.35-1.221 6.444-.749 2.61-.11 3.83 2.308 5.009 5.348 2.607 10.6 5.417 15.852 8.226l2.735 1.462c3.508 1.87 3.638 1.89 5.556-1.88 3.528-6.948 5.327-14.317 5.187-22.135h2.998c.16 7.798-1.649 15.157-5.007 22.145-.421.878-.791 1.606-1.102 2.219-.863 1.7-1.277 2.515-1.104 3.176.16.609.816 1.087 2.076 2.006a66.727 66.727 0 0 1 2.479 1.877 539.665 539.665 0 0 0 4.681 3.672c2.629 2.046 5.258 4.092 7.82 6.216 3.417 2.84 3.867 2.98 6.535-.71 7.735-10.687 13.221-22.245 13.64-35.762.034-1.102.314-2.2.593-3.296v-.001c.131-.514.262-1.028.367-1.542h1.998c.66 9.858-1.449 19.236-5.776 27.964-2.018 4.076-4.645 7.855-7.268 11.627-.883 1.27-1.766 2.54-2.625 3.82-.125.188-.255.371-.381.55l-.002.003-.002.002c-.928 1.312-1.719 2.43-.094 4.134 4.577 4.799 9.053 9.708 13.47 14.657 1.439 1.62 2.618 1.72 4.097.17 1.361-1.428 2.77-2.818 4.179-4.209 2.853-2.816 5.707-5.633 8.163-8.759C325.191 36.151 330.277 19.205 330.927.8h2.997c-.073.675-.15 1.35-.227 2.025-.187 1.635-.375 3.272-.502 4.914-1.839 23.235-11.932 42.22-29.549 57.277-2.179 1.86-2.778 3.27-1 5.78 2.978 4.188 5.736 8.547 8.365 12.977 1.509 2.549 3.177 3.319 5.586 1.43 1.973-1.546 4.006-3.034 6.039-4.522 4.693-3.434 9.387-6.87 13.347-11.006 18.317-19.156 27.96-42.12 27.92-68.865h2.998c-.081 1.237-.148 2.476-.216 3.715-.149 2.738-.298 5.477-.593 8.203-2.598 23.794-12.721 43.99-30.029 60.367-4.945 4.68-10.605 8.631-16.226 12.555h-.002l-.001.002c-.921.643-1.842 1.285-2.758 1.93-2.138 1.51-2.448 2.57-1.339 4.779 1.763 3.5 3.343 7.1 4.919 10.693l.687 1.564c1.769 4.009 1.809 4.079 5.796 2.39 13.641-5.799 25.872-13.868 36.205-24.425C385.508 59.927 397.37 32.862 396.89.819h2.998c-.111 2.005-.16 4.02-.208 6.035v.001c-.105 4.324-.209 8.646-.931 12.86-5.596 32.633-22.145 58.568-49.196 77.524-5.014 3.517-10.578 6.264-16.13 9.003l-.002.002c-1.927.951-3.852 1.901-5.752 2.882l-.424.219-.01.005c-3.171 1.631-3.225 1.659-2.104 5.385.354 1.178.704 2.357 1.054 3.536l.004.013c.597 2.009 1.193 4.018 1.81 6.019 1.459 4.719 1.538 4.829 6.255 3.549 12.631-3.409 24.383-8.768 35.395-15.856 27.261-17.577 45.568-41.922 55.271-72.815 3.917-12.477 5.376-25.355 5.936-38.352l.02-.03Zm-266.132 663.9c22.564-.36 42.24-3.799 61.267-11.157 27.17-10.508 49.954-27.025 68.451-49.42 14.83-17.946 25.162-38.292 31.458-60.747 3.488-12.428 5.126-25.085 5.826-37.892.24-4.399-.06-4.499-4.357-4.669a48.044 48.044 0 0 0-2.247-.014c-1.425.013-2.851.026-4.238-.196-4.777-.764-4.836-.246-5.186 2.784l-.001.001a46.18 46.18 0 0 1-.22 1.714c-2.128 14.267-6.045 27.934-12.021 41.061-11.162 24.515-27.651 44.681-49.595 60.168-27.081 19.106-57.22 28.334-90.536 27.644-22.055-.46-42.83-5.479-62.556-15.017-20.576-9.948-37.784-24.215-51.964-42.071-16.618-20.926-26.75-44.741-30.688-71.175l-.043-.294c-.379-2.566-.567-3.841-1.303-4.433-.727-.585-1.988-.504-4.493-.345l-.047.003c-1.054.07-2.113.083-3.173.096h-.012c-.603.008-1.207.016-1.811.034-4.997.14-5.496.29-5.057 5.049.186 2.008.357 4.023.528 6.038.7 8.27 1.404 16.569 3.18 24.615 6.086 27.534 18.797 51.949 37.723 72.815 32.987 36.372 74.418 54.339 121.115 55.388v.02Zm672.036-.03c1.131-.106 2.558-.212 4.2-.334 4.555-.338 10.767-.799 16.915-1.725 32.117-4.859 60.467-18.146 84.64-39.782 29.329-26.254 47.227-59.027 53.472-97.969.707-4.408.937-8.887 1.168-13.366.112-2.177.225-4.353.391-6.52.23-2.979-1.049-4.279-4.057-4.169-2.318.09-4.667-.06-6.985-.22-4.277-.29-4.347-.27-4.897 4.059-2.018 15.837-6.755 30.863-13.69 45.2-7.095 14.667-16.548 27.625-27.98 39.262-13.71 13.967-29.399 24.955-47.307 32.743-20.795 9.038-42.53 12.778-65.214 12.108-19.446-.57-37.913-4.949-55.571-12.758-20.705-9.158-38.412-22.405-53.142-39.721-14.26-16.767-24.553-35.583-30.289-56.818-1.616-6.002-2.769-12.133-3.921-18.26l-.368-1.956-.237-1.25c-.47-2.479-1.36-3.389-3.998-2.869-1.756.348-3.58.375-5.404.402-.688.01-1.376.02-2.06.048-4.457.19-4.847.39-4.527 5.019.419 6.129.919 12.287 1.868 18.356 6.906 44.011 28.181 79.753 63.366 106.787 29.159 22.396 62.586 33.313 103.627 33.693v.04ZM169.587 341.113l.001.011c.391 4.271.886 9.678 1.481 15.08 2.099 18.926 7.985 36.743 16.709 53.559 14.279 27.524 34.655 49.53 61.276 65.536 24.743 14.877 51.514 22.985 80.464 23.675 2.388.06 3.347-.46 3.387-2.889.048-2.565.322-5.139.593-7.695l.027-.253c.409-4-.08-4.72-3.988-5.269-33.996-4.759-63.025-19.396-86.988-43.961-25.672-26.315-39.842-57.978-42.42-94.55-2.009-28.514 3.507-55.729 17.388-80.913 22.893-41.542 57.689-67.096 104.066-76.884 2.781-.589 5.597-.988 8.407-1.386l.447-.064c2.708-.38 3.647-1.869 3.248-4.509-.35-2.299-.6-4.619-.74-6.938-.28-4.609-.679-5.109-5.406-4.679-1.153.103-2.308.202-3.463.301-5.31.456-10.629.913-15.873 1.808-40.462 6.919-74.128 25.905-100.5 57.468-25.432 30.434-37.663 65.786-38.522 108.277h.01c.117 1.224.249 2.669.396 4.275Zm336.424-9.695h.002c4.132-.21 8.839-.449 13.49-1.078 21.126-2.85 41.181-8.988 59.948-19.376 22.864-12.658 41.611-29.764 56.45-51.169 13.281-19.146 22.075-40.252 26.182-63.177 1.266-7.08 1.779-14.317 2.29-21.523.066-.925.131-1.849.198-2.772.3-4.059-.16-4.239-4.087-4.479-.876-.053-1.757-.074-2.637-.095-1.793-.043-3.585-.087-5.327-.395-2.708-.49-3.408.45-3.738 2.999-3.637 27.545-14.09 52.249-31.398 73.995-18.197 22.885-41.201 39.032-68.781 48.62-21.415 7.448-43.429 9.438-65.934 7.028-16.048-1.72-31.347-5.999-45.927-12.807-20.835-9.728-38.663-23.385-53.193-41.272-10.802-13.297-19.136-27.964-24.962-44.1-3.747-10.388-6.236-21.046-7.755-31.944-.289-2.049-.919-2.929-3.177-2.589-1.94.296-3.912.373-5.885.45-.69.027-1.381.054-2.07.09-4.526.23-5.006.35-4.576 4.999.159 1.715.309 3.434.459 5.154l.001.004c.703 8.067 1.409 16.162 3.147 24.006 7.894 35.572 25.722 65.466 53.322 89.291 30.859 26.634 66.963 39.482 109.173 40.401v.01c1.467-.102 3.077-.184 4.785-.271Zm324.583.351c-.165-1.701-.315-3.65-.478-5.771-.409-5.319-.901-11.725-1.93-18.044-5.147-31.683-18.407-59.677-39.762-83.652-20.995-23.575-46.777-39.752-77.056-48.75-12.991-3.859-26.341-5.549-39.792-6.548-4.277-.32-4.567.11-4.846 4.219-.18 2.649-.41 5.309-.74 7.938-.28 2.23.49 3.519 2.768 3.839.475.067.946.162 1.416.257h.001c.509.103 1.017.206 1.531.273 21.115 2.89 40.681 10.238 58.509 21.726 25.842 16.636 45.188 39.041 57.449 67.385 11.192 25.875 14.5 52.859 10.763 80.633-3.188 23.655-11.842 45.351-25.652 64.857-16.648 23.515-38.083 41.171-64.695 52.419a145.995 145.995 0 0 1-37.923 10.328c-3.987.529-4.467 1.209-4.027 5.189.24 2.149.45 4.299.62 6.448.309 3.919.509 4.379 4.476 4.199.932-.042 1.865-.081 2.798-.12 5.717-.238 11.459-.478 17.068-1.449 40.012-6.879 73.638-25.315 100.01-56.429 25.882-30.543 38.333-66.116 39.482-108.947h.01Zm-1.509-328.25c-1.621.175-3.588.336-5.801.517-5.861.48-13.444 1.101-20.88 2.502-39.452 7.458-72.089 26.934-97.511 57.938-23.004 28.044-34.886 60.607-36.984 96.779-.36 6.169-.21 6.219 5.756 6.309 9.38.149 9.384.13 11.135-9.082l.047-.246c5.916-31.314 19.766-58.458 42.58-80.893 27.98-27.514 61.816-41.551 100.749-43.461 17.088-.84 33.916 1.79 50.144 7.079 27.181 8.848 50.325 23.924 68.902 45.88 15.459 18.266 26.131 38.882 31.617 62.167.983 4.181 1.72 8.429 2.455 12.667l.353 2.03c.37 2.149.95 3.949 3.578 3.929 3.328-.03 6.655-.06 9.983-.14 2.058-.05 2.998-1.14 2.798-3.229-.215-2.266-.384-4.54-.554-6.814-.35-4.702-.7-9.406-1.455-14.042-6.225-38.332-23.483-70.825-52.323-96.93-31.198-28.244-68.042-42.14-114.589-42.96ZM491.303 336.747c-12.701.09-32.707 3.81-51.953 11.418-20.376 8.048-38.453 19.746-54.222 34.963-15.029 14.497-26.841 31.313-35.515 50.309-8.664 18.986-13.63 38.922-14.529 59.797-.318 7.35-.106 7.349 4.962 7.33.675-.002 1.435-.005 2.292.009 1.064.017 1.987.044 2.789.068 2.87.085 4.188.125 4.888-.514.594-.543.742-1.576 1.015-3.485.151-1.051.34-2.369.662-4.017 11.262-57.588 44.399-96.76 99.2-117.316 17.917-6.718 36.694-8.858 55.91-7.938 15.629.74 30.679 3.759 45.308 9.078 23.824 8.668 43.87 22.925 60.608 41.841 9.653 10.898 17.527 23.015 23.603 36.283 6.356 13.877 10.533 28.384 12.481 43.52.26 1.99.82 3.02 3.098 2.78 1.791-.185 3.598-.22 5.406-.254h.004c1.025-.02 2.051-.039 3.074-.086 3.957-.18 4.407-.39 4.167-4.399l-.065-1.078c-.396-6.605-.795-13.253-1.903-19.758-8.255-48.71-33.507-86.492-74.798-113.146-26.761-17.276-56.56-25.485-96.512-25.395l.03-.01ZM2.248 158.446a59.246 59.246 0 0 0-.047 1.556c-.025 1.151-.05 2.304-.222 3.433-.43 2.879.939 4.019 3.597 4.079.969.022 1.938.028 2.906.034h.005c1.697.01 3.393.02 5.083.116 2.858.16 4.148-.94 4.527-3.909 2.538-20.106 9.204-38.802 19.556-56.198 16.169-27.145 38.653-47.34 67.413-60.258 26.231-11.777 53.642-15.966 82.322-11.887 29.879 4.249 56.22 16.116 78.704 36.092 27.121 24.105 43.619 54.229 49.186 90.211.917 5.959.939 5.959 6.746 5.899h.029c.606-.007 1.211-.009 1.816-.011 1.06-.004 2.118-.007 3.18-.039 4.607-.14 5.167-.33 4.667-4.849-.21-1.913-.409-3.83-.607-5.748-.9-8.68-1.802-17.385-3.75-25.835-8.144-35.363-26.321-64.777-53.932-88.382-14.33-12.247-30.339-21.705-47.886-28.374C198.05 3.918 169.69 1.28 140.621 5.788c-22.544 3.5-43.35 11.488-62.546 23.735C55.48 43.94 37.434 62.846 23.953 85.94c-13.05 22.355-20.256 46.6-21.705 72.505Zm494.039 211.336c-1.339.145-2.964.282-4.793.437-4.831.407-11.082.935-17.229 2.052-34.255 6.219-62.995 22.375-86.069 48.58-16.059 18.236-26.681 39.261-32.597 62.736-.861 3.403-1.42 6.885-1.978 10.366-.18 1.122-.36 2.243-.55 3.362-.42 2.469.24 4.139 3.188 4.469 3.457.4 6.905 1.079 10.302 1.829 2.279.5 3.378-.25 3.938-2.469.889-3.549 1.788-7.109 3.017-10.548 10.493-29.364 28.49-52.809 55.022-69.475 31.797-19.966 66.323-25.965 102.467-16.907 48.406 12.128 80.384 43.011 96.522 90.261.315.919.561 1.963.808 3.01v.002c.583 2.472 1.168 4.956 2.67 5.826 1.644.945 4.224.298 6.761-.339.979-.246 1.952-.49 2.862-.641 6.855-1.139 6.925-1.179 5.646-8.118-6.445-35.102-22.374-64.836-49.685-88.201-27.806-23.792-60.118-35.42-100.302-36.232Zm339.104 261.724.92-.086c1.928-.18 4.877-.456 7.833-.754l.721-.071.523-.051.689-.065.918-.086c2.523-.237 5.048-.473 7.552-.836 30.029-4.339 56.27-16.857 78.615-37.262 16.568-15.147 29.119-33.253 37.473-54.169 4.467-11.178 7.685-22.675 9.164-34.643.026-.219.064-.442.101-.666.217-1.286.431-2.564-1.45-2.913-4.247-.79-8.514-1.46-12.791-2.11-1.789-.269-2.778.68-3.188 2.4-.164.686-.38 1.362-.595 2.037l-.001.002c-.096.302-.192.604-.284.906l-.026.087-.025.083-.068.234c-7.765 27.265-22.614 49.92-44.729 67.586-31.857 25.455-68.262 35.013-108.203 27.324-47.237-9.088-80.274-36.752-99.32-80.943-1.973-4.574-3.372-9.414-4.766-14.234a615.34 615.34 0 0 0-.82-2.822c-.7-2.39-1.689-3.329-4.237-2.73-1.763.414-3.555.699-5.348.984-1.328.211-2.658.422-3.976.686-4.357.87-4.647 1.35-3.957 5.609 4.667 28.444 15.909 53.889 35.125 75.474 29.899 33.603 67.712 50.03 114.15 51.029Zm-666.84-.04c11.152-.48 23.963-1.529 36.304-5.139 50.875-14.896 85.42-47.31 102.948-97.439 2.078-5.941 3.333-12.177 4.586-18.404.391-1.948.783-3.894 1.2-5.831.839-3.919.35-4.369-3.828-5.229-1.177-.241-2.368-.429-3.559-.617h-.002c-1.771-.279-3.542-.558-5.262-1.013-3.288-.869-4.277.55-5.067 3.52-7.045 26.674-20.985 49.069-41.88 67.126-22.714 19.625-49.146 30.253-78.965 32.193-19.316 1.25-38.123-1.57-56.25-8.708-31.008-12.218-54.481-32.983-69.97-62.387-3.502-6.643-6.003-13.826-8.499-20.992v-.001A478.513 478.513 0 0 0 37.632 501c-1.354-3.766-1.376-3.828-5.974-3.036-1.209.206-2.412.437-3.615.667l-.001.001c-1.902.364-3.802.729-5.718.992-2.398.33-3.008 1.42-2.508 3.739.39 1.813.68 3.648.968 5.482.332 2.111.664 4.22 1.15 6.296 7.665 32.853 24.223 60.347 50.205 81.923 27.42 22.775 59.258 33.673 96.412 34.392v.01Zm666.05-564.191c1.399.11 2.956.194 4.623.283 4.073.218 8.797.47 13.434 1.237 44.139 7.268 76.816 30.833 98.411 69.925 5.017 9.088 8.624 18.756 11.202 28.794.7 2.739 2.039 3.439 4.647 2.879 3.248-.69 6.535-1.349 9.833-1.619 2.868-.24 3.627-1.28 3.168-4.139-7.105-44.801-29.549-79.714-67.503-104.488C889.253 45.03 863.581 37.72 836.02 36.93c-15.249-.44-30.188 1.71-44.828 5.99-25.512 7.458-47.497 20.895-65.774 40.06-15.719 16.487-27.34 35.663-33.926 57.589-1.724 5.741-2.959 11.63-4.193 17.516-.441 2.099-.881 4.197-1.343 6.289-.54 2.459.06 4.199 3.118 4.389 1.937.117 3.862.472 5.784.827.537.099 1.074.199 1.611.292l.043.008c6.142 1.072 6.176 1.078 7.781-4.967 5.396-20.195 15.239-38.062 29.279-53.368 26.592-28.984 59.748-43.701 101.009-44.271l.02-.01Zm-664.731.11c.9.073 2.038.139 3.346.214 3.499.2 8.218.472 12.873 1.156 28 4.119 52.393 15.856 72.878 35.452 17.858 17.077 30.139 37.532 36.604 61.437 1.409 5.199 1.709 5.329 6.896 4.389a44.455 44.455 0 0 1 2.499-.359h.001c.486-.06.972-.121 1.457-.191 7.814-1.149 7.884-1.169 6.565-8.818-6.745-39.271-26.151-71.035-58.049-94.61-30.189-22.305-64.305-31.863-101.968-28.374-15.249 1.41-29.969 4.82-43.899 10.898C70.97 65.225 43.949 92.919 28.47 131.62a137.18 137.18 0 0 0-8.664 33.263c-.34 2.63.22 3.72 2.898 3.83 1.175.045 2.343.266 3.51.486.638.121 1.276.242 1.916.333l.051.008c8.184 1.182 8.348 1.206 10.602-6.626 6.265-21.776 17.487-40.772 33.526-56.528 26.072-25.635 57.559-38.932 97.561-39.012v.01ZM330.417 187.04c-.248.047-.561.111-.92.184-.786.159-1.792.364-2.807.536-37.534 6.478-68.492 24.475-91.956 54.368-27.14 34.583-36.964 74.105-29.629 117.436 6.476 38.271 25.692 69.205 56.52 92.79 20.246 15.497 43.08 24.905 68.312 28.634 3.188.47 4.277-.56 4.677-3.349l.036-.252.037-.261.045-.326.107-.774c.29-2.103.579-4.204 1.064-6.266 1.282-5.445.874-5.543-2.42-6.338-.48-.116-1.021-.246-1.627-.41-27.521-7.499-50.355-22.266-68.482-44.251-18.747-22.725-28.59-49.04-30.298-78.293-1.07-18.317 2.098-36.143 8.524-53.369 8.603-23.035 22.693-42.101 41.79-57.438 14.6-11.718 30.968-20.036 49.155-24.675 4.301-1.093 4.288-1.169 3.571-5.292l-.013-.077c-.528-3.041-.989-6.101-1.448-9.152l-.003-.017-.028-.189c-.31-2.059-1.149-3.479-4.227-3.219h.02Zm466.261 143.88c.51-15.767-3.058-33.473-9.793-50.51-12.531-31.743-33.487-56.518-62.726-74.084-16.728-10.048-34.955-16.237-54.252-19.186-3.597-.55-4.446.13-4.976 3.719-.115.788-.218 1.578-.32 2.367l-.001.004-.002.017c-.217 1.675-.434 3.347-.766 5l-.018.089c-1.062 5.321-1.083 5.428 4.045 6.83 24.043 6.529 44.588 18.866 61.806 36.862 23.753 24.825 35.655 54.659 36.924 88.712.89 23.795-4.786 46.29-16.238 67.135-14.59 26.545-35.695 46.221-63.546 58.328-5.575 2.427-11.408 4.276-17.231 6.122l-.008.003-.021.006-2.032.646-1.413.452c-2.278.73-3.407 1.429-2.748 4.129.594 2.42.942 4.901 1.29 7.381.138.984.276 1.967.429 2.947.4 2.539 1.409 3.849 4.367 3.139 1.87-.444 3.781-.727 5.692-1.011l.004-.001c1.876-.278 3.755-.557 5.596-.988 33.376-7.788 61.366-24.624 82.901-51.309 22.065-27.344 33.497-58.737 33.037-96.799Zm-294.332-33.093c7.664.349 18.067-.71 28.36-2.94 30.868-6.708 56.949-21.755 78.414-44.93 17.238-18.607 28.64-40.332 34.826-64.847.846-3.352 1.405-6.772 1.963-10.192l.002-.015c.219-1.338.437-2.676.673-4.01.519-2.909-.89-4.369-3.688-4.769-.816-.116-1.638-.212-2.462-.309l-.001-.001c-2.162-.254-4.328-.509-6.39-1.11-3.348-.979-4.327.43-5.117 3.34-8.774 32.273-26.761 58.008-54.521 76.874-20.346 13.827-42.89 21.195-67.253 22.755-19.876 1.28-39.152-2.16-57.589-9.768-30.938-12.777-54.212-34.013-69.031-64.077-3.081-6.256-5.368-12.918-7.651-19.566-.694-2.021-1.387-4.041-2.103-6.048l-.222-.631-.001-.004c-1.163-3.313-1.182-3.368-5.273-2.765-2.628.38-5.256.79-7.884 1.23-4.147.69-4.957 1.39-4.257 5.639.989 6.059 2.258 12.107 3.877 18.026 8.884 32.513 27.241 58.768 54.002 78.874 26.072 19.586 55.641 29.523 91.306 29.254l.02-.01ZM236.013 331.11c.06 14.486 1.379 26.054 4.537 37.322 9.514 33.903 29.439 60.027 59.348 78.503 10.243 6.329 21.215 11.108 32.897 14.157 3.947 1.03 4.637.63 5.756-3.179.376-1.289.735-2.584 1.094-3.879.53-1.912 1.061-3.824 1.644-5.719l.041-.135c1.329-4.365 1.343-4.412-3.059-6.214-13.57-5.539-25.742-13.367-36.094-23.675-28.33-28.224-39.702-62.397-34.286-101.968 3.358-24.515 14.25-45.551 31.278-63.427 11.312-11.868 24.692-20.696 39.772-27.024 3.856-1.623 3.848-1.65 2.569-5.718l-.041-.131a323.735 323.735 0 0 1-2.968-10.048l-.028-.102c-1.171-4.168-1.185-4.217-5.378-2.997-26.242 7.638-48.586 21.345-66.183 42.491-20.396 24.495-30.449 52.739-30.899 81.743Zm527.678 3.629c0-14.297-2.138-28.244-6.605-41.771-8.264-25.015-22.774-45.821-43.36-62.177-14.219-11.298-30.218-19.326-47.816-24.115-2.738-.74-3.897-.23-4.557 2.539-.919 3.879-2.048 7.729-3.437 11.468-1.069 2.899-.19 4.039 2.558 5.129 12.331 4.899 23.623 11.667 33.357 20.665 30.758 28.474 43.839 63.617 37.953 105.248-4.407 31.154-19.896 56.078-44.589 75.394-8.184 6.409-17.188 11.388-26.781 15.297-2.718 1.11-3.557 2.35-2.358 5.239.933 2.249 1.563 4.622 2.193 6.992.227.854.454 1.708.695 2.556 1.349 4.779 1.818 5.059 6.645 3.689 24.832-7.018 45.768-20.246 62.896-39.541 21.944-24.715 32.427-53.799 33.226-86.602l-.02-.01ZM166.952 597.423c1.279 0 2.558.012 3.837.023h.003c3.05.027 6.101.054 9.141-.073 2.648-.109 5.296-.579 7.904-1.059 39.503-7.209 70.131-27.604 91.486-61.727 6.585-10.528 11.312-21.876 14.55-33.843 1.074-3.981.98-4.009-2.855-5.153l-.053-.016c-2.991-.887-5.981-1.802-8.965-2.716l-1.548-.473-.004-.001c-1.943-.59-2.896-.88-3.559-.562-.639.306-1.008 1.175-1.732 2.882l-.081.19c-8.914 21.056-22.434 38.542-41.261 51.529-23.903 16.487-50.394 23.635-79.434 20.396-33.157-3.709-59.898-18.916-80.383-45.181a109.035 109.035 0 0 1-15.2-26.304c-1.704-4.219-1.768-4.199-6.204-2.809l-.031.01c-.901.283-1.798.59-2.694.897-2.107.72-4.214 1.441-6.38 1.862-5.21 1.022-5.071 1.495-4.004 5.138.102.347.212.723.327 1.131 6.096 21.775 17.048 40.921 32.957 56.888 25.891 25.994 57.369 39.161 94.173 38.951l.01.02Zm666.41-527.409c-1.192.077-2.446.15-3.744.227h-.001c-3.291.194-6.863.405-10.425.713-3.148.28-6.286.73-9.383 1.32-37.624 7.158-66.823 26.974-87.918 58.828-7.415 11.197-12.571 23.455-16.089 36.402-1.079 3.959-.919 4.049 3.008 5.189 1.192.346 2.386.685 3.579 1.023l.003.001c2.006.569 4.013 1.137 6.011 1.745l.08.025c2.278.696 3.415 1.043 4.217.67.799-.372 1.265-1.459 2.195-3.63l.024-.054c9.083-21.196 22.973-38.562 42.04-51.499 25.332-17.187 53.442-23.695 83.631-19.026 32.677 5.039 58.798 21.535 77.925 48.5 3.458 4.882 6.162 10.3 8.866 15.717 1.171 2.347 2.343 4.694 3.575 6.998.134.251.26.51.384.768.748 1.546 1.464 3.03 3.863 2.301l1.26-.384c4.037-1.233 8.076-2.466 12.131-3.625 1.848-.53 2.338-1.62 1.808-3.369a28.527 28.527 0 0 1-.4-1.514 31.177 31.177 0 0 0-.359-1.376c-7.864-26.414-22.074-48.63-43.559-66.076-23.893-19.406-51.374-28.844-82.702-29.864l-.02-.01Zm-539.241 98.042-.418-1.492c-6.646-23.065-18.317-43.111-35.905-59.567-32.767-30.654-71.44-42.121-115.448-34.353-31.338 5.529-57.07 21.305-77.386 45.84-11.852 14.317-20.216 30.464-25.072 48.41-1.24 4.579-1.21 4.589 3.547 5.999l2.564.76c2.177.644 4.356 1.289 6.53 1.949l.04.012c4.267 1.288 4.322 1.305 6.166-2.991 7.274-16.967 17.677-31.723 31.747-43.651 27.341-23.195 59.108-32.283 94.374-26.964 30.168 4.549 54.931 19.396 73.967 43.441 6.756 8.538 12.122 17.916 16.259 27.994l.086.21.057.14c.657 1.622 1.278 3.157 3.674 2.439 1.635-.491 3.278-.962 4.921-1.434h.001c2.836-.814 5.672-1.627 8.469-2.545.725-.242 1.319-.889 1.828-1.444l.001-.001c.206-.225.398-.434.579-.595l.02-.01-.601-2.147Zm205.766 235.168c-2.308.194-4.627.329-6.945.464-4.998.291-9.995.582-14.889 1.456-34.036 6.079-61.857 22.755-83.012 50.189-10.492 13.598-17.857 28.824-22.354 45.431-.769 2.849-.34 4.339 2.798 4.979 2.484.505 4.916 1.29 7.344 2.074l.004.002c.745.24 1.49.481 2.235.713l.102.032c4.726 1.479 4.839 1.514 6.893-3.261 5.387-12.508 12.352-24.085 21.765-33.873 26.791-27.834 59.398-40.711 98.131-36.952 27.41 2.659 50.724 14.097 70.33 33.283 11.092 10.857 19.337 23.675 25.502 37.882 1.914 4.405 1.998 4.38 6.59 2.952l.105-.033c3.016-.939 6.051-1.828 9.086-2.717l.008-.002c4.307-1.26 4.507-1.55 3.258-5.919-7.675-26.884-22.035-49.58-43.839-67.046-24.163-19.356-51.804-29.644-83.112-29.654Zm337.782 194.689c1.263-.157 2.859-.298 4.692-.46l.001-.001c5.029-.444 11.84-1.047 18.431-2.578 42.8-9.908 73.588-35.043 92.285-74.794 2.567-5.458 4.416-11.279 6.255-17.07.23-.723.459-1.445.69-2.166 1.139-3.549.509-4.159-3.078-5.239a626.99 626.99 0 0 1-9.533-2.979l-.039-.013c-4.728-1.527-4.753-1.535-6.527 2.882-5.156 12.817-12.461 24.355-21.954 34.293-26.701 27.954-59.298 40.951-98.011 37.002-35.315-3.609-63.216-20.386-83.661-49.27-3.635-5.13-6.511-10.8-9.383-16.462l-.002-.005-.004-.006a380.061 380.061 0 0 0-2.942-5.722c-1.949-3.689-2.089-3.929-6.106-2.749-1.059.311-2.117.633-3.175.955l-.016.005c-2.599.791-5.2 1.583-7.831 2.229-2.349.58-3.028 1.73-2.259 3.949.153.443.252.905.35 1.368l.001.002c.075.352.15.705.249 1.05 5.486 19.396 14.839 36.762 28.39 51.609 26.401 28.934 59.288 43.72 103.157 44.17h.02Zm-339.051-333.19c19.077.22 36.135-3.289 52.363-10.217 27.181-11.618 48.296-30.304 63.146-55.939 5.696-9.838 9.973-20.285 12.971-31.273.819-3.019-.08-4.229-2.948-4.909-2.68-.633-5.315-1.453-7.946-2.272l-.007-.002-.005-.001c-.858-.267-1.716-.534-2.575-.794l-.041-.013c-1.943-.588-2.936-.889-3.644-.566-.739.338-1.167 1.355-2.043 3.435l-.018.043c-7.295 17.316-17.897 32.223-32.277 44.391-22.264 18.856-48.146 28.014-77.136 27.944-15.229-.04-30.108-3.09-44.169-9.218-16.078-6.999-30.058-16.947-41.77-30.114-8.954-10.068-15.929-21.295-20.925-33.773-.98-2.439-2.159-3.389-4.857-2.429-3.917 1.389-7.914 2.549-11.941 3.599-2.279.59-3.068 1.7-2.369 3.939.442 1.416.852 2.844 1.263 4.271l.001.003.001.005.001.003c.739 2.57 1.477 5.141 2.402 7.646 19.236 51.789 68.551 86.521 122.513 86.241h.01ZM166.373 564.69c11.432.07 22.574-1.649 33.466-4.919 23.523-7.058 42.81-20.455 57.929-39.731 6.176-7.879 11.372-16.437 15.059-25.805 1.489-3.789 1.35-3.859-2.418-5.539-.994-.44-1.995-.871-2.996-1.303l-.005-.002c-2.972-1.281-5.949-2.564-8.78-4.103-2.699-1.46-4.148-1.01-5.557 1.619-4.127 7.699-9.673 14.317-15.918 20.376-24.883 24.105-54.692 32.833-88.488 27.204-23.833-3.969-43.619-15.776-58.958-34.603-3.02-3.702-5.658-7.724-8.288-11.733-.382-.582-.763-1.164-1.146-1.744-1.359-2.059-2.608-2.509-4.886-1.329-3.15 1.63-6.422 3.028-9.688 4.422l-1.674.716-.108.047c-4.969 2.143-4.983 2.149-2.78 7.132 6.206 14.027 14.89 26.244 25.962 36.912 22.184 21.386 48.805 31.574 79.294 32.373l-.02.01Zm335.793-332.78c1.744-.235 3.666-.45 5.706-.677 4.795-.535 10.244-1.143 15.579-2.272 27.98-5.909 50.584-20.506 68.152-43.041 5.876-7.538 10.312-15.907 14.23-24.575 1.788-3.958 1.649-4.019-2.355-5.777l-.004-.002c-.851-.374-1.706-.744-2.561-1.114-3.119-1.348-6.242-2.699-9.23-4.284-2.699-1.43-4.327-.9-5.576 1.719-.226.471-.516.907-.806 1.344l-.001.002-.002.003v.001l-.002.002c-.17.256-.34.513-.499.778-5.795 9.688-13.38 17.846-22.124 24.865-19.017 15.266-40.701 22.605-65.204 22.115-19.216-.38-36.694-5.959-52.663-16.317-12.901-8.358-23.243-19.356-31.118-32.563-1.669-2.809-3.108-3.299-5.926-1.839-2.861 1.476-5.822 2.757-8.784 4.039-1.01.437-2.021.874-3.027 1.319-3.708 1.64-4.038 1.81-2.179 5.449.409.804.817 1.611 1.225 2.417 2.97 5.874 5.957 11.782 9.648 17.179 22.933 33.573 55.42 49.48 97.511 51.219l.01.01Zm330.886 332.71c10.543.08 20.896-1.429 31.008-4.299 22.544-6.398 41.401-18.616 56.64-36.432 7.515-8.798 13.461-18.576 18.088-29.164 1.818-4.147 1.748-4.179-2.533-6.136l-.006-.003c-1.19-.543-2.394-1.061-3.597-1.579l-.001-.001c-2.623-1.129-5.244-2.257-7.724-3.648-2.917-1.64-4.227-.74-5.965 1.749a420.684 420.684 0 0 0-2.544 3.691c-3.488 5.097-6.994 10.22-11.257 14.565-21.285 21.696-47.186 32.004-77.755 30.604-15.289-.7-29.449-4.849-42.77-12.148-15.968-8.758-28.649-20.985-37.883-36.692-1.459-2.479-2.728-3.319-5.496-1.849-2.951 1.573-6.046 2.892-9.137 4.21l-.002.001c-.738.315-1.477.629-2.213.947l-.121.053c-4.407 1.907-4.478 1.938-2.567 6.436 17.508 41.151 58.449 69.655 105.825 69.675l.01.02ZM499.474 436.348c-1.913.188-3.872.336-5.857.486-4.453.337-9.04.683-13.546 1.513-26.441 4.839-48.705 17.306-66.613 37.432-8.264 9.288-14.689 19.746-19.556 31.164-1.489 3.499-1.189 4.039 2.378 5.648 1.149.522 2.299 1.037 3.45 1.551l.006.003c2.644 1.183 5.287 2.365 7.896 3.625l.207.1c3.64 1.761 3.642 1.762 5.889-1.869 5.546-8.969 12.002-17.137 20.076-24.025 24.413-20.826 52.453-28.754 84.021-23.225 22.554 3.949 41.67 14.497 56.67 31.953 4.317 5.029 8.104 10.538 11.801 16.046 1.559 2.33 2.798 2.69 5.217 1.46 4.297-2.189 8.684-4.209 13.16-5.999 2.399-.959 2.519-2.299 1.589-4.229-.529-1.103-1.042-2.216-1.556-3.328l-.001-.002c-1.301-2.817-2.602-5.634-4.149-8.307-22.363-38.73-56.296-57.966-101.082-59.997ZM269.47 340.031c.349 3.823.771 8.455 1.609 13.004 7.634 41.281 30.978 70.185 69.151 87.352 2.718 1.219 3.877.399 4.857-2.11 1.244-3.185 2.709-6.294 4.169-9.392v-.001l.088-.185c.343-.727.656-1.363.932-1.924.975-1.983 1.491-3.031 1.274-3.894-.243-.966-1.402-1.701-3.858-3.259l-.608-.386-.259-.165c-9.913-6.309-18.697-13.877-25.841-23.255-16.978-22.255-23.874-47.27-20.226-75.064 3.327-25.365 14.829-46.371 34.336-62.887 4.426-3.749 9.273-7.029 14.15-10.188 2.338-1.51 2.788-2.789 1.539-5.229-1.539-3.014-2.886-6.134-4.229-9.246-.305-.708-.611-1.416-.918-2.121-2.098-4.789-2.178-4.829-6.935-2.67-13.62 6.189-25.762 14.407-36.274 25.195-21.775 22.325-32.278 49.189-33.327 82.322h-.03c.135 1.199.261 2.577.398 4.081l.002.013v.009Zm461.165-8.841c-.191-1.432-.372-3.116-.572-4.974-.517-4.787-1.158-10.739-2.396-16.572-4.337-20.466-13.791-38.362-28.071-53.749-11.282-12.157-24.552-21.355-39.712-27.934-3.467-1.499-3.797-1.31-5.266 1.97a1043.054 1043.054 0 0 1-5.336 11.827l-.046.1c-1.734 3.77-1.761 3.829 1.905 6.079 11.461 7.049 21.464 15.757 29.409 26.634 25.272 34.593 25.842 81.203 1.948 116.086-8.314 12.137-18.756 21.955-31.387 29.474-3.748 2.234-3.718 2.299-1.923 6.208l.014.03c.55 1.202 1.117 2.398 1.685 3.595l.004.011c1.286 2.712 2.573 5.426 3.667 8.212 1.119 2.869 2.449 3.269 5.257 2.05 14.219-6.159 26.821-14.577 37.633-25.745 21.655-22.345 32.197-49.21 33.167-83.302h.02Zm98.06-227.523c-10.532-.26-21.954 2.39-32.017 5.709-20.236 6.679-37.214 18.386-51.184 34.363-7.595 8.678-13.59 18.496-18.217 29.104-1.969 4.509-1.759 4.919 2.428 6.828 1.177.534 2.355 1.063 3.533 1.592 2.465 1.108 4.929 2.214 7.37 3.357l.093.044c1.855.87 2.785 1.307 3.523 1.089.744-.219 1.292-1.101 2.392-2.873l.037-.059c8.454-13.647 19.227-25.095 32.917-33.513 19.596-12.048 40.761-17.357 63.865-14.777 19.756 2.199 37.324 9.338 52.693 21.835 9.373 7.619 17.258 16.617 23.243 27.165 1.34 2.349 2.449 2.909 5.017 1.479 3.078-1.715 6.351-3.084 9.614-4.449l.014-.006c.726-.303 1.451-.607 2.174-.914 4.207-1.789 4.346-1.939 2.538-6.178-5.636-13.138-13.281-25.025-23.394-35.113-22.854-22.805-50.374-34.713-86.639-34.683Zm-662.093-.16c-13.91-.04-24.942 2.37-35.005 5.599-22.174 7.119-40.471 19.936-55.031 38.042-6.595 8.208-11.742 17.347-15.979 27.005-1.209 2.749-.66 4.209 2.219 5.308 4.347 1.65 8.614 3.56 12.78 5.629 2.339 1.16 3.338.52 4.747-1.519a433.758 433.758 0 0 0 2.38-3.486v-.002c3.327-4.906 6.669-9.835 10.721-14.059 23.643-24.665 52.573-35.432 86.629-31.213 16.099 1.989 30.848 7.838 44.179 17.246 12.021 8.488 21.814 18.976 29.199 31.664 1.339 2.309 2.498 2.549 4.737 1.419 2.917-1.477 5.903-2.812 8.889-4.146l.004-.002.002-.001.009-.004c1.11-.496 2.221-.992 3.327-1.496 2.525-1.146 3.331-2.982 2.418-5.508-.279-.78-.589-1.56-.949-2.31-21.465-43.901-56.86-66.146-105.276-68.166ZM585.507 520.17a98.237 98.237 0 0 1-.359-.652c-.174-.319-.341-.631-.505-.937v-.001c-.581-1.083-1.116-2.081-1.734-3.019-6.176-9.388-13.491-17.727-22.424-24.605-22.245-17.107-47.317-23.835-75.028-19.936-19.086 2.69-35.954 10.678-50.494 23.375-7.565 6.609-14.02 14.227-19.206 22.855-2.069 3.45-1.919 3.69 1.489 5.839 1.301.821 2.612 1.63 3.924 2.439l.001.001c3.079 1.899 6.161 3.8 9.125 5.868 2.299 1.6 3.588 1.28 5.257-.849 1.542-1.966 3.351-3.728 5.158-5.489.464-.452.928-.905 1.387-1.36 27.751-27.474 72.919-30.854 104.326-9.168 6.796 4.699 12.552 10.378 18.078 16.376l.18.198.088.097c1.058 1.17 1.926 2.129 3.799.855 2.87-1.955 5.785-3.846 8.7-5.738a650.604 650.604 0 0 0 6.309-4.13c.508-.336.916-.828 1.336-1.332l.006-.008.006-.007.145-.174.055-.065.125-.146c.083-.097.169-.193.256-.287Zm249.894-383.36c-16.898.08-30.759 3.07-43.929 9.218-18.317 8.559-32.647 21.546-43.14 38.812-1.179 1.93-1.149 3.25.919 4.509 4.837 2.93 9.644 5.919 14.34 9.058 2.009 1.34 3.268.8 4.687-.779 2.238-2.47 4.517-4.899 6.935-7.189 19.376-18.346 42.61-25.645 68.782-22.425 21.275 2.619 39.102 12.487 52.942 29.124 2.488 2.999 2.708 2.989 6.146.75 1.542-1.009 3.082-2.022 4.622-3.035l.003-.002c2.489-1.637 4.977-3.274 7.476-4.892 3.668-2.369 4.038-2.769 1.539-6.119-.99-1.331-1.97-2.678-2.951-4.026v-.001l-.002-.002c-3.925-5.398-7.871-10.824-12.636-15.366-18.956-18.117-41.85-27.225-65.753-27.625l.02-.01ZM174.98 530.917l.005-.001c5.223-.756 11.596-1.677 17.809-3.228 15.279-3.809 28.72-11.467 40.342-22.065 7.144-6.519 13.3-13.957 18.207-22.375 1.129-1.94 1.279-3.05-.92-4.37-4.846-2.909-9.573-6.008-14.21-9.248-2.108-1.469-3.297-1.249-4.936.74-13.95 16.947-31.818 26.955-53.612 29.744-21.735 2.779-41.771-1.91-59.448-14.917-4.547-3.345-8.547-7.444-12.538-11.533a345.674 345.674 0 0 0-3.751-3.804c-1.469-1.469-2.348-1.739-4.117-.48-2.92 2.08-5.932 4.029-8.944 5.979l-.002.001-.002.001-.002.001c-1.316.852-2.632 1.704-3.94 2.567-4.158 2.729-4.328 2.849-1.7 6.888 19.526 30.004 47.457 45.131 86.219 46.94 1.614-.273 3.484-.543 5.53-.839l.01-.001Zm667.006-.072c4.999-.73 11.603-1.694 17.977-3.467 24.453-6.798 43.21-21.505 56.7-42.961 2.319-3.689 2.219-3.789-1.459-6.208a443.165 443.165 0 0 0-4.674-3.024l-.004-.003-.003-.002-.001-.001c-2.916-1.869-5.829-3.738-8.658-5.729-1.769-1.239-2.658-1.109-4.087.47-3.328 3.69-6.716 7.379-10.433 10.678-13.521 11.988-29.469 18.836-47.397 20.026-28.729 1.909-52.862-7.918-71.509-30.214-1.699-2.029-2.888-2.049-4.917-.65-4.516 3.11-9.083 6.189-13.85 8.898-2.668 1.52-2.688 2.94-1.029 5.029 1.707 2.151 3.344 4.376 4.982 6.6l.007.009c3.604 4.896 7.208 9.791 11.549 13.907 18.877 17.936 41.761 26.714 72.019 27.374l-.01.01c1.316-.234 2.944-.472 4.792-.742h.005ZM171.499 167.394c14.47-.23 31.288 5.739 46.127 17.136 4.569 3.506 8.613 7.757 12.61 11.96l.731.768c2.049 2.149 3.528 2.299 5.906.64 4.237-2.94 8.624-5.659 13.081-8.249 2.498-1.449 2.808-2.919 1.129-5.159-1.184-1.573-2.322-3.184-3.46-4.794v-.001c-1.933-2.737-3.866-5.473-6.023-8.022-18.927-22.365-43.32-33.663-72.389-34.743-18.377-.68-35.585 4.039-51.554 13.138-14.46 8.238-25.952 19.595-34.745 33.692-2.229 3.58-2.109 3.83 1.538 6.189 2.5 1.618 4.987 3.254 7.476 4.891l.002.002.008.005.004.003.005.003c1.535 1.01 3.07 2.019 4.607 3.025 3.447 2.249 3.657 2.199 6.176-.69 16.998-19.586 38.302-29.804 68.771-29.794Zm131.377 166.735c-.599 10.398 1.349 20.366 4.527 30.044 7.605 23.175 21.865 41.241 42.6 54.168 2.318 1.45 3.807 1.26 5.296-1.16 2.788-4.529 5.676-9.018 8.774-13.327 1.789-2.489 1.229-3.749-.969-5.709-4.337-3.859-8.654-7.888-12.182-12.467-14.739-19.126-20.595-40.761-16.908-64.716 2.089-13.547 7.095-26.025 15.759-36.733 4.057-5.009 8.604-9.668 13.271-14.117 2.348-2.239 2.388-3.759.609-6.278-3.057-4.349-5.845-8.898-8.554-13.468-1.109-1.879-2.228-2.259-3.997-1.119-.388.249-.787.484-1.186.719h-.001c-.463.273-.926.545-1.371.84-29.619 19.916-45.048 47.59-45.678 83.323h.01Zm394.032.12c.22-18.216-4.546-34.973-13.74-50.49-8.204-13.837-19.276-24.954-32.887-33.522-3.917-2.46-4.027-2.35-6.485 1.589-2.369 3.809-4.767 7.599-7.255 11.338l-.115.173c-2.697 4.05-2.798 4.201 1.134 7.435 9.583 7.879 16.708 17.606 21.635 28.884 11.272 25.785 10.033 51.049-3.458 75.784-4.866 8.918-11.571 16.247-19.176 22.775-2.588 2.22-2.338 3.76-.61 6.169 1.993 2.763 3.841 5.634 5.689 8.506l.001.001.007.011c.67 1.042 1.34 2.083 2.018 3.12 2.718 4.169 2.888 4.279 6.925 1.639 30.099-19.686 45.458-47.54 46.317-83.412ZM502.995 197.908c13.081.439 28.2-3.51 42.49-10.978 16.179-8.458 28.94-20.536 38.533-36.053 1.489-2.409 1.699-3.909-1.189-5.538-4.777-2.69-9.364-5.739-13.85-8.899-2.009-1.419-2.958-1.079-4.427.7-6.636 8.009-14.36 14.777-23.494 19.886-15.429 8.628-32.007 12.398-49.495 10.498-22.834-2.47-41.83-12.647-56.47-30.514-1.609-1.969-2.648-1.709-4.477-.45-4.065 2.805-8.26 5.437-12.447 8.064l-.963.605c-3.468 2.179-3.758 2.469-1.429 5.698a432.807 432.807 0 0 1 2.55 3.579c3.295 4.658 6.602 9.334 10.56 13.358 19.457 19.766 42.99 30.303 74.128 30.054l-.02-.01Zm330.117 2.529c1.01.087 2.022.155 3.033.223 2.141.144 4.28.288 6.391.607 12.461 1.869 23.663 6.688 33.216 14.987 2.159 1.879 3.628 2.099 5.836-.09 4.237-4.219 8.724-8.219 13.331-12.038 1.958-1.619 2.498-2.679.679-4.759-16.079-18.426-36.344-28.524-60.717-29.244-18.487-.55-35.555 4.899-50.454 16.027-3.586 2.68-6.79 5.887-9.989 9.09l-.001.001c-1.276 1.277-2.552 2.554-3.851 3.796-1.988 1.91-1.678 3.5.52 5.299 4.507 3.689 8.904 7.519 13.061 11.588 2.088 2.039 3.337 2.249 5.726.28 12.511-10.308 26.871-15.757 43.219-15.767Zm-465.661 69.575c-.368.237-.731.449-1.081.652-.743.433-1.427.831-1.977 1.368-.829.814-1.673 1.617-2.517 2.421-2.538 2.415-5.082 4.836-7.226 7.567-17.518 22.265-22.924 47.16-15.439 74.604 4.327 15.857 13.08 28.934 25.482 39.672 2.428 2.099 3.747 1.569 5.586-.69 3.457-4.249 7.165-8.308 10.862-12.347l.187-.204c2.793-3.045 2.814-3.068.203-6.365-14.22-17.916-18.137-38.072-12.841-60.117 2.328-9.708 7.025-18.267 13.56-25.805.119-.137.238-.27.355-.4 1.1-1.227 2.013-2.247.225-4.099-3.056-3.163-6.003-6.432-8.95-9.701l-.011-.012a709.9 709.9 0 0 0-4.52-4.984c-.361-.396-.792-.722-1.249-1.067-.213-.16-.43-.325-.649-.503v.01ZM165.145 169.994c-.802-.022-1.604-.043-2.4.039a99.966 99.966 0 0 0-3.929.508c-.833.119-1.665.237-2.496.342-20.926 2.69-37.993 12.458-51.924 28.124-1.948 2.2-1.669 3.34.49 5.119 3.684 3.044 7.19 6.301 10.692 9.556v.001l1.919 1.781.138.128c1.626 1.508 2.436 2.258 3.266 2.283.823.023 1.667-.666 3.347-2.038l.064-.053c11.172-9.108 23.923-14.307 38.333-15.107 17.718-.98 33.547 4.109 47.167 15.517 2.418 2.029 3.647 1.679 5.706-.33 3.374-3.281 6.969-6.341 10.557-9.395l.975-.83.789-.673c3.358-2.869 3.448-3.259.62-6.799a24.637 24.637 0 0 0-1.659-1.859c-16.538-17.177-36.824-25.765-60.577-26.305l.02.01c-.365 0-.73-.009-1.094-.019h-.004Zm336.849-5.358h.002c1.632.025 3.264.051 4.886-.061 1.407-.093 2.803-.337 4.203-.581.57-.1 1.141-.2 1.713-.289 20.086-3.1 36.435-12.768 49.665-28.064 1.859-2.14 1.339-3.05-.649-4.639-3.898-3.09-7.575-6.489-11.202-9.908l-.144-.136c-2.244-2.122-3.369-3.186-4.555-3.26-1.192-.074-2.446.851-4.96 2.705l-.244.181c-17.168 12.657-36.135 16.936-57.02 11.947-9.883-2.359-18.657-7.008-26.442-13.447-2.348-1.939-3.887-2.319-6.255.03-4.176 4.131-8.645 7.968-13.109 11.802l-.612.526c-1.359 1.169-2.108 1.989-.609 3.569.906.953 1.759 1.962 2.613 2.969l.001.001c1.302 1.538 2.602 3.073 4.081 4.408 16.049 14.477 34.686 22.535 56.55 22.216l-.01.01c.698 0 1.398.01 2.097.021Zm-2.017 338.257c-2.139.311-4.291.573-6.443.835-4.764.579-9.53 1.159-14.162 2.275-16.479 3.989-30.189 12.807-41.411 25.474-2.508 2.84-2.268 3.64.52 6.149a911.99 911.99 0 0 1 12.141 11.098l.137.128c2.97 2.772 2.98 2.781 6.249.162 12.081-9.648 25.771-15.087 41.28-15.427 16.819-.38 31.688 5.129 44.609 15.787 2.348 1.939 3.677 1.919 5.756-.2 3.487-3.56 7.175-6.939 10.972-10.158l.113-.096c4.965-4.214 5.067-4.301.287-9.282-16.349-17.047-36.175-26.105-60.068-26.735l.02-.01Zm-335.933-5.059c27.521-.07 48.236-9.648 64.834-28.464 2.109-2.399 1.749-3.769-.519-5.668-3.947-3.31-7.715-6.839-11.482-10.368l-.079-.074c-1.961-1.838-2.939-2.754-3.959-2.804-1.014-.049-2.069.758-4.174 2.369l-.352.269c-17.957 13.717-37.873 17.996-59.778 11.947-9.263-2.559-17.687-6.838-24.912-13.267-1.779-1.58-3.058-2.029-5.027-.15-4.696 4.479-9.563 8.778-14.459 13.027-1.3 1.13-1.479 2.07-.48 3.36.241.308.474.625.706.941.459.626.918 1.25 1.442 1.808 16.439 17.466 36.415 26.984 58.239 27.074Zm499.518-167.951v-.003c-.217-2.207-.511-5.188-.93-8.148-2.838-19.966-12.351-36.303-27.28-49.62-2.848-2.54-3.268-2.41-6.036.63a785.093 785.093 0 0 0-4.581 5.075l-.012.013c-2.026 2.258-4.051 4.515-6.109 6.739l-.094.102c-1.529 1.653-2.306 2.492-2.347 3.366-.043.899.691 1.835 2.18 3.734l.002.002.001.002.001.001.057.072c13.18 16.846 17.667 35.752 13.39 56.728-2.178 10.678-7.025 20.066-13.94 28.354-1.979 2.369-1.799 3.759.25 5.819 3.398 3.419 6.665 6.988 9.713 10.707.659.803 1.19 1.502 1.639 2.091 1.048 1.378 1.644 2.162 2.362 2.297.948.179 2.108-.773 4.8-2.981l.912-.747c.64-.53 1.239-1.109 1.819-1.709 15.829-16.207 24.063-35.593 24.433-60.398l-.01.03c-.064-.574-.136-1.308-.22-2.156Zm173.457 167.981c5.247.26 14.67-1.489 23.854-4.829 13.44-4.889 24.742-12.867 34.146-23.575 2.508-2.849 2.388-3.199-.32-5.548-4.267-3.71-8.514-7.449-12.691-11.268l-.176-.161c-3.032-2.781-3.079-2.824-6.619.061-12.062 9.848-25.972 14.887-41.421 15.117-15.839.24-30.099-4.739-42.58-14.627-4.307-3.419-4.337-3.399-8.214.13a618.976 618.976 0 0 0-3.674 3.372c-2.449 2.258-4.895 4.515-7.409 6.696-3.497 3.029-3.627 3.209-.589 6.628 16.268 18.317 36.574 27.774 65.693 28.004ZM501.076 131.721c.617-.069 1.344-.139 2.15-.215 2.093-.2 4.716-.451 7.314-.884 11.052-1.82 21.015-6.199 29.799-13.158 3.437-2.719 3.377-2.839.729-6.228-1.069-1.37-2.15-2.732-3.231-4.095-2.848-3.589-5.697-7.18-8.341-10.912-1.718-2.42-2.948-2.74-5.606-1.27-6.445 3.57-13.31 5.809-20.865 6.039-9.713.3-18.907-1.13-27.331-6.159-2.258-1.35-3.617-1.25-5.286 1.09-2.569 3.609-5.32 7.087-8.071 10.565l-.001.002v.001a553.374 553.374 0 0 0-3.8 4.839c-2.578 3.339-2.578 3.399.5 5.858 11.872 9.469 25.472 14.098 42.04 14.527Zm335.014 332.97c11.532-.24 24.893-4.559 36.654-13.597 4.237-3.259 4.227-3.319 1.04-7.308-.95-1.19-1.905-2.376-2.861-3.563-2.907-3.608-5.816-7.22-8.561-10.944-1.659-2.26-3.148-2.35-5.447-1.15-16.078 8.368-32.247 8.218-48.305 0-2.729-1.4-4.008-.68-5.656 1.63-3.468 4.879-7.205 9.568-11.043 14.167l-.067.08c-3.053 3.661-3.202 3.84.687 6.758 11.931 8.968 25.282 13.887 43.549 13.937l.01-.01ZM630.615 333.549l-.106-.933c-.206-1.823-.505-4.459-.783-7.095-1.319-12.658-6.785-23.495-14.49-33.393-1.309-1.68-2.288-1.8-4.017-.35-4.957 4.169-10.073 8.148-15.199 12.117l-.164.127c-1.764 1.366-2.64 2.045-2.832 2.882-.191.826.285 1.805 1.231 3.753l.096.197c7.704 15.866 7.894 31.723-.6 47.34-1.509 2.779-.889 3.879 1.419 5.549 4.833 3.491 9.469 7.27 14.104 11.047l.786.64.117.096c3.093 2.527 3.212 2.624 5.748-.566 9.334-11.697 14.15-25.064 14.68-41.411h.01ZM166.183 203.746c-15-.5-28.41 5.029-40.532 14.347-2.178 1.68-2.498 2.99-.599 5.249 4.177 4.959 8.234 10.038 11.971 15.317 1.919 2.699 3.338 2.649 6.086 1.17 7.884-4.249 16.428-6.479 25.422-6.069 7.545.34 14.76 2.24 21.505 5.819 4.011 2.122 4.096 2.01 6.727-1.449l.298-.391c3.627-4.749 7.415-9.388 11.262-13.977l.221-.264c1.16-1.383 1.757-2.096 1.703-2.755-.057-.701-.848-1.342-2.481-2.664l-.033-.026c-11.961-9.688-25.592-14.607-41.57-14.317l.02.01Zm203.409 136.658c.597 3.637 1.334 8.134 2.525 12.511 2.249 8.268 6.386 15.687 11.862 22.315 1.349 1.63 2.638 2.82 4.937.89 5.346-4.479 10.832-8.798 16.408-12.997 1.739-1.31 1.789-2.25.849-4.069-8.504-16.527-9.013-33.123-.03-49.65 1.13-2.069.83-3.129-.999-4.499-5.576-4.189-11.102-8.478-16.458-12.947-1.919-1.6-2.778-1.36-4.317.47-10.123 12.137-14.66 26.254-15.429 44.21l.01.01c.205 1.088.413 2.359.642 3.756Zm130.615 195.942c-1.38.159-2.765.286-4.15.413-3.079.283-6.155.566-9.161 1.187-10.562 2.19-20.165 6.539-28.479 13.577-1.949 1.65-2.279 2.68-.48 4.759 2.648 3.063 5.14 6.259 7.631 9.454 1.185 1.519 2.37 3.039 3.571 4.543.648.81 1.132 1.49 1.526 2.044l.001.002c.712.999 1.131 1.588 1.687 1.783.795.279 1.87-.242 4.481-1.508l.539-.261c8.844-4.279 18.057-6.289 27.98-5.059 6.556.81 12.701 2.579 18.397 5.799 2.499 1.419 3.988 1.189 5.746-1.27 2.887-4.038 6.004-7.915 9.12-11.791l.002-.003.672-.835a690.05 690.05 0 0 0 1.848-2.308l.101-.127c2.558-3.212 2.563-3.218-.89-5.952-11.752-9.288-25.103-14.037-40.132-14.457l-.01.01Zm-333.485-71.675c9.833.1 19.237-1.969 27.961-6.408 3.721-1.892 7.213-4.26 10.697-6.622 1.063-.72 2.125-1.44 3.193-2.146 1.229-.82 2.358-1.88.909-3.67-2.037-2.518-4.044-5.061-6.051-7.603-2.63-3.333-5.261-6.665-7.959-9.943-.52-.63-2.028-.84-2.968-.65-.839.173-1.624.608-2.413 1.045l-.002.001c-.394.219-.79.437-1.192.624-8.464 3.909-17.248 5.679-26.642 4.769-6.585-.64-12.691-2.47-18.556-5.399-4.098-2.045-4.138-1.994-6.917 1.539l-.228.291c-3.213 4.088-6.528 8.089-9.848 12.095l-.021.025-1.174 1.417c-2.718 3.289-2.718 3.699.57 6.318 11.892 9.458 25.452 14.197 40.631 14.317h.01Zm666.137-260.945c-15.118-.409-28.877 4.68-41.008 14.367-3.147 2.51-3.066 2.606-.684 5.431l.235.278c3.847 4.579 7.624 9.228 11.242 13.987l.298.393c2.597 3.423 2.632 3.469 6.757 1.387 15.869-8.019 31.687-7.849 47.336.51 2.399 1.279 3.688 1.199 5.327-1.05 3.194-4.396 6.564-8.672 9.933-12.946l.001-.001c.646-.82 1.292-1.639 1.937-2.46 2.498-3.169 2.568-3.269-.709-5.819-11.8-9.177-25.029-14.335-40.665-14.077ZM499.797 569.749c-8.034.33-15.709 2.09-22.903 5.919-2.059 1.09-2.549 2.12-1.389 4.259 3.577 6.559 7.035 13.187 10.422 19.846.989 1.96 2.059 2.609 4.297 1.96 6.356-1.84 12.821-1.79 19.177-.02 2.218.619 3.327.09 4.337-1.89 3.377-6.669 6.815-13.297 10.382-19.866 1.149-2.109.77-3.169-1.329-4.279-7.195-3.819-14.869-5.559-22.984-5.929h-.01Zm-334.234-332.97c-6.915.09-14.39 2.08-21.495 5.609-2.128 1.06-2.938 2.1-1.529 4.609 3.738 6.659 7.185 13.487 10.632 20.315.85 1.69 1.77 2.051 3.538 1.511 6.676-2.04 13.411-2.03 20.106-.06 1.699.5 2.688.35 3.568-1.41 3.507-6.979 7.085-13.927 10.852-20.766 1.119-2.039.63-2.849-1.189-3.829-7.335-3.929-15.139-5.869-24.473-5.959l-.01-.02Zm667.279.03c-8.154-.1-15.728 2.06-22.923 5.789-1.909.99-2.718 1.78-1.399 4.129 3.747 6.649 7.215 13.457 10.622 20.296.939 1.89 1.909 2.28 3.867 1.69 6.506-1.97 13.091-1.96 19.617-.1 2.178.62 3.157.12 4.177-1.99 2.669-5.522 5.553-10.934 8.435-16.343l.045-.085 1.373-2.578.074-.139c1.856-3.482 1.905-3.574-1.833-5.38-6.955-3.369-14.24-5.479-22.065-5.279l.01-.01Zm-666.23 194.759c7.765-.2 14.97-1.979 21.805-5.228 3.877-1.84 3.947-2.37 2.059-5.969-3.308-6.319-6.616-12.648-9.813-19.026-.87-1.73-1.719-2.6-3.828-1.92-6.505 2.13-13.101 1.94-19.636.17-2.158-.58-3.218-.16-4.267 1.94-3.248 6.538-6.635 13.017-10.273 19.346-1.529 2.659-.719 3.659 1.629 4.929 7.045 3.789 14.64 5.229 22.314 5.748l.01.01Zm665.431.03c8.484-.43 16.368-1.989 23.693-5.958 2.259-1.23 2.658-2.32 1.329-4.649a384.04 384.04 0 0 1-10.043-18.876c-1.149-2.32-2.158-3.22-4.886-2.45-6.336 1.78-12.801 1.91-19.127-.2-2.388-.79-3.217.37-4.147 2.21-3.107 6.228-6.315 12.407-9.573 18.566-1.899 3.589-1.909 4.089 1.929 6.019 6.615 3.319 13.73 4.789 20.815 5.348l.01-.01Zm-429.117-97.809c-.44 7.998 1.549 15.457 4.996 22.595 1.119 2.31 2.359 3.3 5.017 1.81 6.225-3.479 12.551-6.779 18.916-9.988 2.339-1.18 3.158-2.57 2.329-5.129-1.949-6.029-1.849-12.107.08-18.126.819-2.56 0-3.879-2.399-5.059-5.031-2.477-9.978-5.142-14.925-7.808-1.183-.637-2.367-1.275-3.552-1.91-3.267-1.75-3.647-1.76-5.356 1.57-3.537 6.908-5.576 14.197-5.116 22.035l.01.01Zm96.711-235.98c8.065.51 15.55-1.4 22.674-4.97 2.239-1.12 3.288-2.169 1.679-4.938-3.587-6.169-6.825-12.558-10.023-18.956-1.169-2.33-2.428-3.21-5.076-2.36-6.016 1.92-12.151 1.89-18.167-.02-2.698-.85-3.877.16-5.027 2.44-2.557 5.1-5.247 10.14-7.935 15.175-.6 1.124-1.2 2.247-1.798 3.37l-.048.091c-.839 1.57-1.266 2.368-1.086 2.992.186.647 1.025 1.105 2.734 2.039l.069.038c6.885 3.739 14.2 5.589 22.004 5.099Zm97.102 236.71c.56-8.248-1.459-15.717-5.086-22.775-1.709-3.32-2.109-3.31-5.367-1.56-1.291.692-2.581 1.389-3.871 2.085l-.002.001c-4.837 2.609-9.674 5.219-14.604 7.642-2.408 1.18-3.267 2.479-2.368 5.029 2.059 5.839 2.029 11.807.15 17.626-1.099 3.399.33 4.759 3.078 6.109 5.806 2.849 11.502 5.919 17.198 8.988 3.757 2.03 4.437 1.89 6.295-2.18 3.088-6.718 5.177-13.667 4.557-20.965h.02Zm237.083-33.423c.284-.345.611-.676.937-1.006.705-.714 1.408-1.426 1.681-2.273 1.176-3.666 2.279-7.358 3.383-11.051l.01-.033c1.171-3.92 2.343-7.84 3.602-11.732.68-2.099.33-3.079-1.729-3.649-5.706-1.58-11.402-2.009-17.138-.08-1.788.6-2.798 1.29-2.088 3.569 2.247 7.241 4.322 14.527 6.397 21.815l.004.014.304 1.067c.59 2.069 1.769 3.119 4.637 3.359Zm-397.8 32.443c-.04.007-.081.012-.122.017l-.132.016a3.514 3.514 0 0 0-.115.017c.132.818.269 1.634.407 2.451v.003l.001.003c.327 1.948.653 3.895.921 5.851.399 2.99 1.888 3.28 4.527 2.43 7.095-2.29 14.219-4.519 21.434-6.399 2.688-.7 3.198-1.89 3.348-4.399.151-2.417-1.205-2.728-2.608-3.049a13.354 13.354 0 0 1-.8-.2c-2.121-.618-4.254-1.203-6.386-1.789l-.003-.001c-3.944-1.082-7.887-2.165-11.758-3.449-7.475-2.47-8.194-2.11-8.704 6.009a20.86 20.86 0 0 0-.011 1.659c.006.277.011.553.011.83h-.01Zm-268.97-63.577a1.668 1.668 0 0 0-.02-.12l-.004-.024-.005-.026-.011-.07c-.802.136-1.606.27-2.409.404-1.978.33-3.956.661-5.925 1.016-2.568.46-3.008 1.79-2.188 4.269 2.318 7.109 4.436 14.287 6.465 21.476.6 2.119 1.189 3.629 3.807 3.709 2.925.078 3.431-1.792 3.999-3.89l.048-.179c.313-1.162.621-2.326.93-3.489 1.139-4.302 2.279-8.604 3.647-12.838 2.898-9.008 2.419-9.808-7.325-10.248-.22-.013-.444-.008-.668-.004-.111.002-.221.004-.331.004l-.01.01Zm397.01 64.217-.397-2.352-.002-.01a626.075 626.075 0 0 1-1-6.036c-.39-2.39-1.569-2.87-3.877-2.14-7.575 2.4-15.209 4.639-22.844 6.869-1.559.46-2.838.839-2.458 2.929.07.392.081.793.093 1.186.036 1.282.071 2.485 2.135 3.043 7.664 2.074 15.261 4.424 22.847 6.772l.507.157c2.138.66 3.147-.08 3.517-2.11.363-2.003.715-4.012 1.068-6.026l.007-.04.394-2.242h.01Zm-397.709 63.507c.01.06.017.122.025.184.007.063.015.125.025.185.884-.126 1.77-.242 2.655-.359l.024-.003.004-.001c2.059-.271 4.117-.543 6.15-.926 1.929-.36 2.738-1.46 2.059-3.63-2.348-7.448-4.567-14.946-6.755-22.445-.61-2.099-1.799-2.899-3.978-2.909-2.348 0-3.007 1.19-3.537 3.249-1.539 5.959-3.188 11.898-5.086 17.746-2.639 8.139-2.399 8.589 6.415 8.909.445.013.885.008 1.327.004h.004l.239-.002.157-.002h.272ZM510.8 606.422c-.252-.186-.52-.442-.801-.709-.656-.624-1.382-1.316-2.137-1.351-5.277-.25-10.583-.3-15.869-.08-2.478.1-3.168 1.71-2.368 4.249 2.258 7.139 4.336 14.327 6.355 21.526.62 2.199 1.579 3.519 4.077 3.449 2.319-.07 3.068-1.44 3.638-3.369 1.452-4.968 2.957-9.921 4.461-14.873l.042-.14.836-2.751c.376-1.24.752-2.481 1.126-3.722.076-.26.149-.52.257-.906.091-.326.208-.742.373-1.323h.01Zm322.122-208.397c.859-.116 1.712-.227 2.559-.337h.004c1.981-.257 3.936-.51 5.881-.832 1.969-.32 2.808-1.26 2.099-3.49-2.408-7.608-4.727-15.246-6.875-22.935-.58-2.059-1.639-2.619-3.528-2.639-1.878-.02-3.147.55-3.727 2.519-2.249 7.659-4.527 15.297-6.895 22.915-.68 2.19.21 3.22 2.138 3.58 1.941.357 3.897.621 5.85.885l1.507.205.467.065.52.074v-.01ZM499.598 65.055c.858-.118 1.7-.21 2.526-.3 1.753-.191 3.435-.375 5.058-.79 3.568-.9 3.758-1.519 2.728-4.908l-.785-2.58-.002-.009c-1.819-5.976-3.638-11.955-5.358-17.957-.6-2.1-1.319-3.7-3.898-3.71-2.548-.01-3.347 1.5-3.957 3.63-2.018 7.029-4.117 14.047-6.345 21.016-.79 2.49-.18 3.909 2.338 4.379 1.716.323 3.445.586 5.133.842.867.132 1.724.262 2.562.397v-.01Zm17.733 269.678.006.001h.003c3.668.506 7.165.988 10.677 1.334.77.08 2.139-.779 2.369-1.489.469-1.45-.29-2.6-2.039-2.58-.647.008-1.293.11-1.94.211l-.315.049-.126.019-.077.011c-2.11.316-4.221.637-6.375.965-2.008.305-4.055.617-6.176.935 1.358.181 2.687.364 3.993.544Zm-351.206 16.842-.001.007c-.475 3.759-.904 7.153-1.2 10.551-.041.512.421 1.066.884 1.621.215.257.43.515.595.768.237-.19.487-.369.737-.549.59-.423 1.177-.845 1.591-1.4.249-.33.13-.965.021-1.539l-.052-.285-.019-.116c-.48-3.157-.977-6.315-1.539-9.881l-.001-.003v-.002l-.509-3.231c-.17 1.392-.338 2.725-.501 4.015l-.006.044Zm320.242-17.356c-1.461-.225-2.903-.45-4.332-.673h-.004a862.263 862.263 0 0 0-10.044-1.527c-1.749-.25-2.958.35-2.838 2.39.11 1.897 1.273 1.741 2.533 1.572.108-.015.216-.029.325-.042 3.193-.408 6.387-.782 9.652-1.166h.007l.008-.001.024-.003c1.534-.18 3.085-.362 4.659-.55h.01Zm347.228 17.097-.153-1.41c-.035-.345-.095-.685-.155-1.027a30.062 30.062 0 0 1-.075-.433 5.882 5.882 0 0 1-.195.4c-.146.285-.294.57-.334.87-.61 4.099-1.2 8.198-1.739 12.307-.21 1.6.539 2.789 2.188 2.429.674-.149 1.213-.913 1.515-1.341l.001-.001.072-.102c.03-.041.056-.077.079-.106a.907.907 0 0 1 .042-.049c-.476-4.441-.866-8.036-1.246-11.537Zm-.083-33.835-.164 1.325-.125 1.012-.187 1.53-.553-4.104c-.42-3.116-.807-5.988-1.199-8.86-.035-.259-.105-.534-.175-.809-.15-.594-.3-1.186-.095-1.61.289-.6.862-1.066 1.435-1.531.238-.193.476-.386.693-.589.182.242.418.488.653.734.514.536 1.027 1.072.986 1.566-.324 3.721-.784 7.426-1.269 11.331v.005ZM500.247 17.915c-.13 0-.262-.005-.395-.01-.132-.005-.264-.01-.394-.01-.137.99-.285 1.977-.432 2.965-.393 2.628-.786 5.255-.967 7.893-.042.576.567 1.195 1.175 1.814h.001c.278.284.556.567.772.846.178-.262.407-.53.637-.797.506-.589 1.013-1.18.972-1.723-.201-2.639-.573-5.267-.944-7.893l-.001-.001a325.444 325.444 0 0 1-.424-3.073v-.01ZM166.463 319.062l.449.04c.151-1.034.304-2.069.457-3.104l.001-.002c.474-3.205.948-6.412 1.371-9.631.21-1.59-.57-2.78-2.228-2.4-.65.15-1.479 1.59-1.419 2.39.234 3.121.604 6.231.974 9.343v.002c.134 1.124.267 2.248.395 3.372v-.01Zm333.005 331.32c.269 0 .549-.01.819-.02.122-.951.252-1.903.382-2.855v-.001c.371-2.718.742-5.439.927-8.171.034-.515-.524-1.067-1.081-1.618a9.173 9.173 0 0 1-.708-.752 8.979 8.979 0 0 1-.706.779c-.547.56-1.093 1.119-1.052 1.631.217 2.761.618 5.499 1.02 8.241.135.921.27 1.843.399 2.766Z"/><path d="M.18 481.697c17.018-2.679 33.556-6.978 48.905-15.036 40.422-21.216 67.073-53.719 77.596-98.22 10.962-46.39 1.229-88.951-28.1-126.503-22.495-28.804-52.324-46.25-88.038-53.679-2.31-.481-4.661-.769-7.013-1.058h-.005c-1.116-.137-2.233-.274-3.345-.432v-1.999c17.378 1.909 33.946 6.698 49.585 14.447 18.087 8.958 33.836 20.995 47.117 36.332 12.241 14.147 21.634 29.914 27.97 47.47 4.886 13.527 7.615 27.464 8.574 41.891 1.199 18.027-.979 35.523-6.046 52.729-4.177 14.157-10.433 27.375-18.647 39.622-15.859 23.665-36.804 41.451-62.596 53.479-13.06 6.088-26.8 9.948-41.05 12.057-1.087.159-2.168.371-3.251.583h-.003l-.004.001c-.55.108-1.099.215-1.65.316v-2Zm915.414-255.536c23.633-22.365 51.704-35.262 83.881-39.402v-1.989c-.943.124-1.887.233-2.832.343-2.029.236-4.057.471-6.062.847-36.354 6.808-66.953 23.795-90.316 52.649-29.829 36.842-40.292 78.923-31.298 125.453 5.226 27.044 17.558 50.739 36.214 71.185 17.448 19.126 38.273 33.013 62.796 40.992 7.013 2.284 14.28 3.796 21.546 5.308 3.326.692 6.651 1.384 9.952 2.15v-2a72.815 72.815 0 0 1-1.576-.35c-1.1-.252-2.201-.504-3.311-.659-14.449-2.04-28.24-6.339-41.321-12.718-27.83-13.557-49.714-33.603-64.994-60.677-17.797-31.523-23.473-65.126-16.828-100.679 5.906-31.593 20.806-58.367 44.149-80.453Z"/><path d="m999.475 206.755-.01.003v-1.992c-33.147 8.678-59.168 27.414-78.195 55.818-11.682 17.436-18.657 36.662-21.045 57.588-2.419 21.215-.43 41.951 7.115 61.907 12.621 33.373 34.915 58.288 67.023 73.984 5.49 2.682 11.295 4.718 17.102 6.755 2.679.939 5.36 1.879 8.01 2.883v-1.999c-.817-.295-1.633-.595-2.45-.896-1.679-.619-3.36-1.239-5.055-1.804-19.456-6.478-36.394-17.046-50.934-31.453-11.832-11.728-21.015-25.275-27.82-40.502-9.783-21.865-12.532-44.84-10.163-68.365 1.789-17.717 7.495-34.403 16.448-49.91 10.863-18.806 25.352-34.123 43.639-45.82 11.29-7.217 23.438-12.535 36.325-16.194v.007l.01-.01ZM8.006 458.729l-.002.001c-2.62.969-5.24 1.938-7.824 2.972H.2v1.999c.42-.144.839-.298 1.258-.452h.002v-.001c.828-.303 1.659-.608 2.507-.846 25.902-7.369 47.577-21.486 64.854-41.981 26.052-30.914 35.705-66.876 30.13-106.688-3.898-27.864-16.29-51.999-35.716-72.275C45.788 223.262 24.673 211.025.19 204.756v1.999c19.186 5.399 36.704 14.228 51.553 27.495 35.505 31.733 50.805 71.685 44.16 118.775-6.346 44.95-30.929 77.903-71.24 98.759-5.329 2.754-10.994 4.85-16.657 6.945Z"/><path d="M999.475 230.75c-11.642 6.269-22.504 13.598-31.638 23.276-17.298 18.356-28.09 39.841-31.268 65.006-3.737 29.524 2.838 56.528 19.676 81.033 9.494 13.807 21.675 24.745 36.025 33.293 1.567.932 3.257 1.65 4.947 2.367a91 91 0 0 1 2.258.982v3c-34.776-16.917-56.49-44.501-64.545-82.063-7.165-33.443.11-64.517 19.936-92.361 10.063-14.137 23.104-25.225 38.233-33.763 1.352-.76 2.808-1.335 4.264-1.909.708-.28 1.416-.559 2.112-.86v1.999ZM22.084 423.04C15.42 428.519 8.524 433.828.18 436.707H.17v3c22.314-10.598 39.662-26.575 51.803-48.11 14.41-25.555 18.647-52.779 12.731-81.483-5.596-27.125-19.676-49.27-40.82-66.856-7.126-5.929-14.81-11.308-23.714-14.507v1.999c14.21 7.629 26.97 17.007 37.264 29.634 22.244 27.274 30.668 58.388 25.112 92.951-4.537 28.214-18.327 51.539-40.462 69.705Z"/><path d="M999.475 262.744c-14.89 14.207-24.673 31.363-28.68 51.539-5.886 29.624.76 56.508 18.947 80.493 1.895 2.503 4.213 4.68 6.532 6.858 1.081 1.016 2.162 2.031 3.201 3.08v3.999c-8.984-7.198-15.629-16.277-21.215-26.214-8.164-14.537-12.551-30.284-12.511-46.821.07-29.713 10.482-55.308 32.836-75.494.159-.138.364-.22.572-.303.108-.043.216-.086.318-.137v3ZM.19 405.704l-.01.01.01-.02v.01Z"/><path d="M22.414 374.081C17.23 386.194 9.39 396.418.19 405.704v2.989c1.301-1.349 2.642-2.668 3.983-3.988 2.914-2.866 5.83-5.736 8.348-8.919 14.68-18.516 21.725-39.882 21.425-63.377-.23-18.056-5.116-35.082-14.72-50.559C14.03 273.492 8.104 265.753.18 259.735v2.999c9.773 9.058 17.228 19.776 22.474 31.983 11.382 26.475 11.072 52.939-.24 79.364Z"/></g><defs><clipPath id="a"><path fill="#fff" transform="translate(0 .759)" d="M0 0h1000v667H0z"/></clipPath></defs></svg>