<svg width="756" height="115" fill="none" xmlns="http://www.w3.org/2000/svg"><g filter="url(#a)"><path fill="#EEF7FF" d="M0 .832h756v114H0z"/><path fill="#fff" d="M8 34.832H0v8h8z"/><path d="M0 34.832v8a8 8 0 0 0 8-8H0Z" fill="#EEF7FF"/><path d="M8 16.832a8 8 0 0 1 8-8h182.095a8 8 0 0 1 8 8v26H8v-26Zm198.143 18h4.952v8h-4.952z" fill="#fff"/><path d="M214.095 34.832v8a8 8 0 0 1-8-8h8Z" fill="#EEF7FF"/><path fill="#fff" d="M0 42.832h756v36H0z"/><path d="M30 59.822v2.02H17.879l5.555 5.556L22 68.832l-8-8 8-8 1.434 1.434-5.555 5.556H30Zm16 0v2.02h12.121l-5.555 5.556L54 68.832l8-8-8-8-1.434 1.434 5.555 5.556H46Zm45.65-4.64a7.958 7.958 0 0 0-5.65-2.35 8 8 0 0 0 0 16c3.73 0 6.84-2.55 7.73-6h-2.08a5.99 5.99 0 0 1-5.65 4 6 6 0 1 1 0-12c1.66 0 3.14.69 4.22 1.78L87 59.832h7v-7l-2.35 2.35Z" fill="#5F6367"/><rect x="110" y="46.832" width="556" height="28" rx="14" fill="#F0F3F4"/><rect x="682" y="46.832" width="28" height="28" rx="14" fill="#DFE1E5"/><g clip-path="url(#b)"><path d="M734 56.832c1.1 0 2-.9 2-2s-.9-2-2-2-2 .9-2 2 .9 2 2 2Zm0 2c-1.1 0-2 .9-2 2s.9 2 2 2 2-.9 2-2-.9-2-2-2Zm0 6c-1.1 0-2 .9-2 2s.9 2 2 2 2-.9 2-2-.9-2-2-2Z" fill="#5F6367"/></g><path d="M132.56 60.752c.413 0 .787.09 1.12.27.333.173.593.437.78.79.193.353.29.783.29 1.29v3.23h-.9v-3.1c0-.547-.137-.963-.41-1.25-.273-.293-.647-.44-1.12-.44-.48 0-.863.15-1.15.45-.28.3-.42.737-.42 1.31v3.03h-.91v-7.4h.91v2.7a1.8 1.8 0 0 1 .74-.65 2.45 2.45 0 0 1 1.07-.23Zm4.787.85v3.23c0 .267.056.457.17.57.113.107.31.16.59.16h.67v.77h-.82c-.507 0-.887-.117-1.14-.35-.254-.233-.38-.617-.38-1.15v-3.23h-.71v-.75h.71v-1.38h.91v1.38h1.43v.75h-1.43Zm3.642 0v3.23c0 .267.057.457.17.57.113.107.31.16.59.16h.67v.77h-.82c-.507 0-.887-.117-1.14-.35-.253-.233-.38-.617-.38-1.15v-3.23h-.71v-.75h.71v-1.38h.91v1.38h1.43v.75h-1.43Zm3.443.26c.18-.313.446-.573.8-.78.36-.213.776-.32 1.25-.32.486 0 .926.117 1.32.35.4.233.713.563.94.99.226.42.34.91.34 1.47 0 .553-.114 1.047-.34 1.48a2.504 2.504 0 0 1-2.26 1.37c-.467 0-.88-.103-1.24-.31a2.291 2.291 0 0 1-.81-.79v3.61h-.91v-8.08h.91v1.01Zm3.72 1.71c0-.413-.084-.773-.25-1.08a1.728 1.728 0 0 0-.68-.7c-.28-.16-.59-.24-.93-.24a1.816 1.816 0 0 0-1.61.96c-.167.307-.25.663-.25 1.07 0 .413.083.777.25 1.09.173.307.4.543.68.71.286.16.596.24.93.24.34 0 .65-.08.93-.24.286-.167.513-.403.68-.71.166-.313.25-.68.25-1.1Zm4.068 2.85c-.42 0-.797-.07-1.13-.21a1.955 1.955 0 0 1-.79-.6c-.194-.26-.3-.557-.32-.89h.94a.924.924 0 0 0 .38.67c.233.173.536.26.91.26.346 0 .62-.077.82-.23.2-.153.3-.347.3-.58a.562.562 0 0 0-.32-.53c-.214-.12-.544-.237-.99-.35a8.111 8.111 0 0 1-1-.32 1.886 1.886 0 0 1-.66-.49c-.18-.22-.27-.507-.27-.86 0-.28.083-.537.25-.77.166-.233.403-.417.71-.55.306-.14.656-.21 1.05-.21.606 0 1.096.153 1.47.46.373.307.573.727.6 1.26h-.91a.935.935 0 0 0-.35-.69c-.207-.173-.487-.26-.84-.26-.327 0-.587.07-.78.21a.647.647 0 0 0-.29.55c0 .18.056.33.17.45.12.113.266.207.44.28.18.067.426.143.74.23.393.107.713.213.96.32.246.1.456.253.63.46.18.207.273.477.28.81 0 .3-.084.57-.25.81-.167.24-.404.43-.71.57-.3.133-.647.2-1.04.2Zm3.574-.03a.599.599 0 0 1-.44-.18.598.598 0 0 1-.18-.44c0-.173.06-.32.18-.44s.267-.18.44-.18c.167 0 .307.06.42.18.12.12.18.267.18.44s-.06.32-.18.44a.554.554 0 0 1-.42.18Zm0-4.28a.599.599 0 0 1-.44-.18.598.598 0 0 1-.18-.44c0-.173.06-.32.18-.44s.267-.18.44-.18c.167 0 .307.06.42.18.12.12.18.267.18.44s-.06.32-.18.44a.554.554 0 0 1-.42.18Zm5.239-5.2-2.74 11.12h-.9l2.73-11.12h.91Zm4.756 0-2.74 11.12h-.9l2.73-11.12h.91Zm4.416 9.42-2.15-2.42v2.42h-.91v-7.4h.91v4.35l2.11-2.43h1.27l-2.58 2.73 2.59 2.75h-1.24Zm4.476.09c-.513 0-.98-.117-1.4-.35a2.546 2.546 0 0 1-.98-.99c-.233-.433-.35-.933-.35-1.5 0-.56.12-1.053.36-1.48.247-.433.58-.763 1-.99.42-.233.89-.35 1.41-.35.52 0 .99.117 1.41.35.42.227.75.553.99.98.247.427.37.923.37 1.49s-.126 1.067-.38 1.5a2.567 2.567 0 0 1-1.01.99c-.426.233-.9.35-1.42.35Zm0-.8c.327 0 .634-.077.92-.23a1.71 1.71 0 0 0 .69-.69c.18-.307.27-.68.27-1.12 0-.44-.086-.813-.26-1.12a1.667 1.667 0 0 0-.68-.68 1.864 1.864 0 0 0-.91-.23c-.333 0-.64.077-.92.23a1.63 1.63 0 0 0-.66.68c-.166.307-.25.68-.25 1.12 0 .447.08.823.24 1.13.167.307.387.537.66.69.274.147.574.22.9.22Zm3.667-2.04c0-.567.113-1.06.34-1.48a2.44 2.44 0 0 1 .94-.99c.406-.233.87-.35 1.39-.35.673 0 1.226.163 1.66.49.44.327.73.78.87 1.36h-.98a1.404 1.404 0 0 0-.55-.79c-.267-.193-.6-.29-1-.29-.52 0-.94.18-1.26.54-.32.353-.48.857-.48 1.51 0 .66.16 1.17.48 1.53.32.36.74.54 1.26.54.4 0 .733-.093 1-.28.266-.187.45-.453.55-.8h.98c-.147.56-.44 1.01-.88 1.35-.44.333-.99.5-1.65.5a2.74 2.74 0 0 1-1.39-.35 2.444 2.444 0 0 1-.94-.99c-.227-.427-.34-.927-.34-1.5Zm9.474 2.75-2.15-2.42v2.42h-.91v-7.4h.91v4.35l2.11-2.43h1.27l-2.58 2.73 2.59 2.75h-1.24Zm1.746-2.76c0-.56.114-1.05.34-1.47a2.47 2.47 0 0 1 .93-.99c.4-.233.844-.35 1.33-.35.48 0 .897.103 1.25.31.354.207.617.467.79.78v-1h.92v5.48h-.92v-1.02c-.18.32-.45.587-.81.8-.353.207-.766.31-1.24.31-.486 0-.926-.12-1.32-.36a2.53 2.53 0 0 1-.93-1.01 3.153 3.153 0 0 1-.34-1.48Zm4.64.01c0-.413-.083-.773-.25-1.08a1.715 1.715 0 0 0-.68-.7 1.78 1.78 0 0 0-.93-.25c-.34 0-.65.08-.93.24-.28.16-.503.393-.67.7-.166.307-.25.667-.25 1.08 0 .42.084.787.25 1.1.167.307.39.543.67.71.28.16.59.24.93.24.34 0 .65-.08.93-.24.287-.167.514-.403.68-.71.167-.313.25-.677.25-1.09Zm3.138 2h2.69v.75h-3.73v-.75l2.66-3.99h-2.64v-.74h3.69v.74l-2.67 3.99Zm3.531-2.01c0-.56.113-1.05.34-1.47a2.47 2.47 0 0 1 .93-.99c.4-.233.843-.35 1.33-.35.48 0 .897.103 1.25.31.353.207.617.467.79.78v-1h.92v5.48h-.92v-1.02c-.18.32-.45.587-.81.8-.353.207-.767.31-1.24.31-.487 0-.927-.12-1.32-.36a2.53 2.53 0 0 1-.93-1.01c-.227-.433-.34-.927-.34-1.48Zm4.64.01c0-.413-.083-.773-.25-1.08a1.722 1.722 0 0 0-.68-.7 1.78 1.78 0 0 0-.93-.25c-.34 0-.65.08-.93.24-.28.16-.503.393-.67.7-.167.307-.25.667-.25 1.08 0 .42.083.787.25 1.1.167.307.39.543.67.71.28.16.59.24.93.24.34 0 .65-.08.93-.24a1.79 1.79 0 0 0 .68-.71c.167-.313.25-.677.25-1.09Zm3.568-1.98v3.23c0 .267.057.457.17.57.113.107.31.16.59.16h.67v.77h-.82c-.507 0-.887-.117-1.14-.35-.253-.233-.38-.617-.38-1.15v-3.23h-.71v-.75h.71v-1.38h.91v1.38h1.43v.75h-1.43Zm4.922 4.82c-.513 0-.98-.117-1.4-.35a2.546 2.546 0 0 1-.98-.99c-.233-.433-.35-.933-.35-1.5 0-.56.12-1.053.36-1.48.247-.433.58-.763 1-.99.42-.233.89-.35 1.41-.35.52 0 .99.117 1.41.35.42.227.75.553.99.98.247.427.37.923.37 1.49s-.126 1.067-.38 1.5a2.567 2.567 0 0 1-1.01.99c-.426.233-.9.35-1.42.35Zm0-.8c.327 0 .634-.077.92-.23a1.71 1.71 0 0 0 .69-.69c.18-.307.27-.68.27-1.12 0-.44-.086-.813-.26-1.12a1.667 1.667 0 0 0-.68-.68 1.864 1.864 0 0 0-.91-.23c-.333 0-.64.077-.92.23a1.63 1.63 0 0 0-.66.68c-.166.307-.25.68-.25 1.12 0 .447.08.823.24 1.13.167.307.387.537.66.69.274.147.574.22.9.22Zm7.067.71-2.15-2.42v2.42h-.91v-7.4h.91v4.35l2.11-2.43h1.27l-2.58 2.73 2.59 2.75h-1.24Zm2.376.06a.599.599 0 0 1-.44-.18.598.598 0 0 1-.18-.44c0-.173.06-.32.18-.44s.267-.18.44-.18c.167 0 .307.06.42.18.12.12.18.267.18.44s-.06.32-.18.44a.554.554 0 0 1-.42.18Zm4.53-5.64c.413 0 .787.09 1.12.27.333.173.593.437.78.79.193.353.29.783.29 1.29v3.23h-.9v-3.1c0-.547-.137-.963-.41-1.25-.273-.293-.647-.44-1.12-.44-.48 0-.863.15-1.15.45-.28.3-.42.737-.42 1.31v3.03h-.91v-7.4h.91v2.7a1.8 1.8 0 0 1 .74-.65 2.45 2.45 0 0 1 1.07-.23Zm8.536.1v5.48h-.91v-.81c-.173.28-.416.5-.73.66-.306.153-.646.23-1.02.23-.426 0-.81-.087-1.15-.26a1.99 1.99 0 0 1-.81-.8c-.193-.353-.29-.783-.29-1.29v-3.21h.9v3.09c0 .54.137.957.41 1.25.274.287.647.43 1.12.43.487 0 .87-.15 1.15-.45.28-.3.42-.737.42-1.31v-3.01h.91Z" fill="#000"/><path fill="#fff" d="M0 78.832h756v36H0z"/></g><defs><clipPath id="b"><path fill="#fff" transform="translate(726 52.832)" d="M0 0h16v16H0z"/></clipPath><filter id="a" x="0" y=".832" width="756" height="114" filterUnits="userSpaceOnUse" color-interpolation-filters="sRGB"><feFlood flood-opacity="0" result="BackgroundImageFix"/><feBlend in="SourceGraphic" in2="BackgroundImageFix" result="shape"/><feColorMatrix in="SourceAlpha" values="0 0 0 0 0 0 0 0 0 0 0 0 0 0 0 0 0 0 127 0" result="hardAlpha"/><feOffset dy="-1"/><feComposite in2="hardAlpha" operator="arithmetic" k2="-1" k3="1"/><feColorMatrix values="0 0 0 0 0.678431 0 0 0 0 0.678431 0 0 0 0 0.678431 0 0 0 1 0"/><feBlend in2="shape" result="effect1_innerShadow_2718_3963"/></filter></defs></svg>