<svg load="lazy" width="838" height="87" fill="none" xmlns="http://www.w3.org/2000/svg"><path fill="#EEF7FF" d="M0 .731h838v86H0z"/><path fill="#fff" d="M8 34.731H0v8h8z"/><path d="M0 34.731v8a8 8 0 0 0 8-8H0Z" fill="#EEF7FF"/><path d="M8 16.731a8 8 0 0 1 8-8h182.095a8 8 0 0 1 8 8v26H8v-26Zm198.143 18h4.952v8h-4.952z" fill="#fff"/><path d="M214.095 34.731v8a8 8 0 0 1-8-8h8Z" fill="#EEF7FF"/><path fill="#fff" d="M0 42.731h838v44H0z"/><path d="M30 63.721v2.02H17.879l5.555 5.556L22 72.731l-8-8 8-8 1.434 1.435-5.555 5.555H30Zm16 0v2.02h12.121l-5.555 5.556L54 72.731l8-8-8-8-1.434 1.435 5.555 5.555H46Zm45.65-4.64a7.958 7.958 0 0 0-5.65-2.35 8 8 0 0 0 0 16c3.73 0 6.84-2.55 7.73-6h-2.08a5.99 5.99 0 0 1-5.65 4 6 6 0 1 1 0-12c1.66 0 3.14.69 4.22 1.78L87 63.731h7v-7l-2.35 2.35Z" fill="#5F6367"/><rect x="110" y="50.731" width="638" height="28" rx="14" fill="#F0F3F4"/><rect x="764" y="50.731" width="28" height="28" rx="14" fill="#DFE1E5"/><g clip-path="url(#a)"><path d="M816 60.731c1.1 0 2-.9 2-2s-.9-2-2-2-2 .9-2 2 .9 2 2 2Zm0 2c-1.1 0-2 .9-2 2s.9 2 2 2 2-.9 2-2-.9-2-2-2Zm0 6c-1.1 0-2 .9-2 2s.9 2 2 2 2-.9 2-2-.9-2-2-2Z" fill="#5F6367"/></g><path d="M133.607 63.477c.537 0 1.023.117 1.456.351.433.226.771.568 1.014 1.027.251.46.377 1.019.377 1.677v4.2h-1.17v-4.03c0-.711-.178-1.253-.533-1.626-.355-.38-.841-.572-1.456-.572-.624 0-1.122.195-1.495.585-.364.39-.546.958-.546 1.703v3.94h-1.183v-9.62h1.183v3.51c.234-.365.555-.646.962-.846.416-.199.88-.299 1.391-.299Zm6.222 1.105v4.2c0 .346.074.593.221.74.148.14.403.208.767.208h.871v1.001h-1.066c-.658 0-1.152-.151-1.482-.455-.329-.303-.494-.801-.494-1.495v-4.199h-.923v-.975h.923v-1.794h1.183v1.794h1.859v.975h-1.859Zm4.736 0v4.2c0 .346.074.593.221.74.147.14.403.208.767.208h.871v1.001h-1.066c-.659 0-1.153-.151-1.482-.455-.329-.303-.494-.801-.494-1.495v-4.199h-.923v-.975h.923v-1.794h1.183v1.794h1.859v.975h-1.859Zm4.475.338c.234-.407.581-.745 1.04-1.014.468-.277 1.01-.416 1.625-.416a3.3 3.3 0 0 1 1.716.455c.52.304.928.733 1.222 1.287.295.546.442 1.183.442 1.911 0 .72-.147 1.361-.442 1.924a3.248 3.248 0 0 1-1.222 1.313 3.228 3.228 0 0 1-1.716.468c-.606 0-1.144-.134-1.612-.403a2.999 2.999 0 0 1-1.053-1.027v4.693h-1.183V63.607h1.183v1.313Zm4.836 2.223c0-.537-.108-1.005-.325-1.404a2.232 2.232 0 0 0-.884-.91 2.394 2.394 0 0 0-1.209-.312c-.433 0-.836.109-1.209.325a2.335 2.335 0 0 0-.884.923c-.216.4-.325.863-.325 1.391 0 .538.109 1.01.325 1.417.226.4.52.707.884.923.373.208.776.312 1.209.312.442 0 .845-.104 1.209-.312a2.32 2.32 0 0 0 .884-.923c.217-.407.325-.884.325-1.43Zm5.288 3.705a3.764 3.764 0 0 1-1.469-.273 2.558 2.558 0 0 1-1.027-.78 2.11 2.11 0 0 1-.416-1.157h1.222c.035.356.2.646.494.871.304.226.698.338 1.183.338.451 0 .806-.1 1.066-.299.26-.199.39-.45.39-.754a.729.729 0 0 0-.416-.689c-.277-.156-.706-.307-1.287-.455a10.612 10.612 0 0 1-1.3-.416 2.473 2.473 0 0 1-.858-.637c-.234-.286-.351-.658-.351-1.118 0-.364.109-.697.325-1 .217-.304.525-.542.923-.716a3.255 3.255 0 0 1 1.365-.273c.789 0 1.426.2 1.911.598.486.4.746.945.78 1.638h-1.183a1.212 1.212 0 0 0-.455-.897c-.268-.225-.632-.338-1.092-.338-.424 0-.762.091-1.014.273a.845.845 0 0 0-.377.715.82.82 0 0 0 .221.585c.156.148.347.27.572.364.234.087.555.187.962.3.512.138.928.277 1.248.415.321.13.594.33.819.598.234.27.356.62.364 1.053a1.8 1.8 0 0 1-.325 1.053c-.216.312-.524.56-.923.741-.39.174-.84.26-1.352.26Zm4.647-.039a.779.779 0 0 1-.572-.234.778.778 0 0 1-.234-.572c0-.225.078-.416.234-.572a.779.779 0 0 1 .572-.234.72.72 0 0 1 .546.234.778.778 0 0 1 .234.572.778.778 0 0 1-.234.572.72.72 0 0 1-.546.234Zm0-5.564a.779.779 0 0 1-.572-.234.778.778 0 0 1-.234-.572c0-.225.078-.416.234-.572a.779.779 0 0 1 .572-.234.72.72 0 0 1 .546.234.778.778 0 0 1 .234.572.778.778 0 0 1-.234.572.72.72 0 0 1-.546.234Zm6.811-6.76-3.562 14.456h-1.17l3.549-14.456h1.183Zm6.183 0-3.562 14.456h-1.17l3.549-14.456h1.183Zm5.74 12.246-2.795-3.146v3.146h-1.183v-9.62h1.183v5.655l2.743-3.159h1.651l-3.354 3.55 3.367 3.574h-1.612Zm5.82.117a3.681 3.681 0 0 1-1.82-.455 3.302 3.302 0 0 1-1.274-1.287c-.304-.563-.455-1.213-.455-1.95 0-.728.156-1.369.468-1.924.32-.563.754-.992 1.3-1.287a3.71 3.71 0 0 1 1.833-.455 3.71 3.71 0 0 1 1.833.455 3.2 3.2 0 0 1 1.287 1.274c.32.555.481 1.2.481 1.937 0 .737-.165 1.387-.494 1.95a3.353 3.353 0 0 1-1.313 1.287 3.784 3.784 0 0 1-1.846.455Zm0-1.04a2.5 2.5 0 0 0 1.196-.299c.372-.199.671-.498.897-.897.234-.398.351-.884.351-1.456s-.113-1.057-.338-1.456a2.174 2.174 0 0 0-.884-.884 2.426 2.426 0 0 0-1.183-.299c-.434 0-.832.1-1.196.3-.356.19-.642.485-.858.883-.217.4-.325.884-.325 1.456 0 .581.104 1.07.312 1.47.216.398.502.697.858.896a2.43 2.43 0 0 0 1.17.286Zm4.766-2.652c0-.736.147-1.378.442-1.924a3.186 3.186 0 0 1 1.222-1.287c.529-.303 1.131-.455 1.807-.455.875 0 1.595.213 2.158.637.572.425.949 1.014 1.131 1.768h-1.274a1.819 1.819 0 0 0-.715-1.027c-.347-.25-.78-.377-1.3-.377-.676 0-1.222.234-1.638.702-.416.46-.624 1.114-.624 1.963 0 .858.208 1.521.624 1.99.416.467.962.701 1.638.701.52 0 .953-.12 1.3-.364.347-.242.585-.589.715-1.04h1.274a3.166 3.166 0 0 1-1.144 1.755c-.572.434-1.287.65-2.145.65-.676 0-1.278-.151-1.807-.455a3.185 3.185 0 0 1-1.222-1.287c-.295-.554-.442-1.204-.442-1.95Zm12.317 3.575-2.795-3.146v3.146h-1.183v-9.62h1.183v5.655l2.743-3.159h1.651l-3.354 3.55 3.367 3.574h-1.612Zm2.27-3.588c0-.728.147-1.365.442-1.91a3.216 3.216 0 0 1 1.209-1.288 3.368 3.368 0 0 1 1.729-.455c.624 0 1.166.135 1.625.403.459.27.802.607 1.027 1.014v-1.3h1.196v7.124h-1.196v-1.326c-.234.416-.585.763-1.053 1.04-.459.27-.997.403-1.612.403a3.228 3.228 0 0 1-1.716-.468 3.287 3.287 0 0 1-1.209-1.313c-.295-.563-.442-1.204-.442-1.924Zm6.032.013c0-.537-.108-1.005-.325-1.404a2.238 2.238 0 0 0-.884-.91 2.32 2.32 0 0 0-1.209-.325c-.442 0-.845.104-1.209.312a2.266 2.266 0 0 0-.871.91c-.217.4-.325.867-.325 1.404 0 .546.108 1.023.325 1.43.217.4.507.707.871.923.364.208.767.312 1.209.312.442 0 .845-.104 1.209-.312a2.32 2.32 0 0 0 .884-.923c.217-.407.325-.88.325-1.417Zm4.079 2.6h3.497v.975h-4.849v-.975l3.458-5.187h-3.432v-.962h4.797v.962l-3.471 5.187Zm4.59-2.613c0-.728.147-1.365.442-1.91a3.216 3.216 0 0 1 1.209-1.288 3.368 3.368 0 0 1 1.729-.455c.624 0 1.166.135 1.625.403.459.27.802.607 1.027 1.014v-1.3h1.196v7.124h-1.196v-1.326c-.234.416-.585.763-1.053 1.04-.459.27-.997.403-1.612.403a3.228 3.228 0 0 1-1.716-.468 3.287 3.287 0 0 1-1.209-1.313c-.295-.563-.442-1.204-.442-1.924Zm6.032.013c0-.537-.108-1.005-.325-1.404a2.238 2.238 0 0 0-.884-.91 2.32 2.32 0 0 0-1.209-.325c-.442 0-.845.104-1.209.312a2.266 2.266 0 0 0-.871.91c-.217.4-.325.867-.325 1.404 0 .546.108 1.023.325 1.43.217.4.507.707.871.923.364.208.767.312 1.209.312.442 0 .845-.104 1.209-.312a2.32 2.32 0 0 0 .884-.923c.217-.407.325-.88.325-1.417Zm4.638-2.574v4.2c0 .346.074.593.221.74.148.14.403.208.767.208h.871v1.001h-1.066c-.658 0-1.152-.151-1.482-.455-.329-.303-.494-.801-.494-1.495v-4.199h-.923v-.975h.923v-1.794h1.183v1.794h1.859v.975h-1.859Zm6.4 6.266a3.681 3.681 0 0 1-1.82-.455 3.302 3.302 0 0 1-1.274-1.287c-.304-.563-.455-1.213-.455-1.95 0-.728.156-1.369.468-1.924.32-.563.754-.992 1.3-1.287a3.71 3.71 0 0 1 1.833-.455 3.71 3.71 0 0 1 1.833.455 3.2 3.2 0 0 1 1.287 1.274c.32.555.481 1.2.481 1.937 0 .737-.165 1.387-.494 1.95a3.353 3.353 0 0 1-1.313 1.287 3.784 3.784 0 0 1-1.846.455Zm0-1.04a2.5 2.5 0 0 0 1.196-.299c.372-.199.671-.498.897-.897.234-.398.351-.884.351-1.456s-.113-1.057-.338-1.456a2.174 2.174 0 0 0-.884-.884 2.426 2.426 0 0 0-1.183-.299c-.434 0-.832.1-1.196.3-.356.19-.642.485-.858.883-.217.4-.325.884-.325 1.456 0 .581.104 1.07.312 1.47.216.398.502.697.858.896a2.43 2.43 0 0 0 1.17.286Zm9.186.923-2.795-3.146v3.146h-1.183v-9.62h1.183v5.655l2.743-3.159h1.651l-3.354 3.55 3.367 3.574h-1.612Zm3.089.078a.779.779 0 0 1-.572-.234.778.778 0 0 1-.234-.572c0-.225.078-.416.234-.572a.779.779 0 0 1 .572-.234.72.72 0 0 1 .546.234.778.778 0 0 1 .234.572.778.778 0 0 1-.234.572.72.72 0 0 1-.546.234Zm5.889-7.332c.537 0 1.023.117 1.456.351.433.226.771.568 1.014 1.027.251.46.377 1.019.377 1.677v4.2h-1.17v-4.03c0-.711-.178-1.253-.533-1.626-.355-.38-.841-.572-1.456-.572-.624 0-1.122.195-1.495.585-.364.39-.546.958-.546 1.703v3.94h-1.183v-9.62h1.183v3.51c.234-.365.555-.646.962-.846.416-.199.88-.299 1.391-.299Zm11.097.13v7.124h-1.183v-1.053c-.225.364-.541.65-.949.858-.398.2-.84.3-1.326.3a3.245 3.245 0 0 1-1.495-.339 2.586 2.586 0 0 1-1.053-1.04c-.251-.459-.377-1.018-.377-1.677v-4.173h1.17v4.017c0 .702.178 1.244.533 1.625.356.373.841.56 1.456.56.633 0 1.131-.196 1.495-.586.364-.39.546-.957.546-1.703v-3.913h1.183Z" fill="#000"/><defs><clipPath id="a"><path fill="#fff" transform="translate(808 56.731)" d="M0 0h16v16H0z"/></clipPath></defs></svg>